<?xml version="1.0" encoding="utf-8"?>
<!-- Generator: Adobe Illustrator 16.0.0, SVG Export Plug-In . SVG Version: 6.00 Build 0)  -->
<!DOCTYPE svg PUBLIC "-//W3C//DTD SVG 1.1//EN" "http://www.w3.org/Graphics/SVG/1.1/DTD/svg11.dtd">
<svg version="1.1" xmlns="http://www.w3.org/2000/svg" xmlns:xlink="http://www.w3.org/1999/xlink" x="0px" y="0px" width="250px"
	 height="250px" viewBox="0 0 250 250" enable-background="new 0 0 250 250" xml:space="preserve">
<g id="circle" display="none">
	<circle display="inline" fill="#355677" cx="125" cy="125" r="125"/>
</g>
<g id="home" display="none">
	<g id="icon" display="inline">
		<g id="chimney">
			<rect x="155.444" y="62.413" fill="#AA6B7D" width="31.795" height="46.733"/>
		</g>
		<g id="base">
			<g>
				<polygon fill="#D1A3B6" points="185.323,189.623 64.606,189.623 64.606,103.529 124.105,59.632 185.323,103.529 				"/>
			</g>
		</g>
		<g id="lining">
			<path fill="#AA6B7D" d="M192.793,120.804l-0.009-10.902c0,0-2.176-1.384-11.877-7.558v-0.276h-0.435
				c-20.721-13.187-52.754-33.572-53.034-33.75c-1.505-0.959-3.434-0.962-4.941-0.003l-53.041,33.753h-0.434v0.276l-11.957,7.609
				l0.07,10.852l14.997-9.544h105.664L192.793,120.804z M124.965,99.602c-4.84,0-8.763-3.923-8.763-8.763s3.923-8.762,8.763-8.762
				c4.839,0,8.763,3.922,8.763,8.762S129.804,99.602,124.965,99.602z M111.145,86.435c-0.444,1.39-0.688,2.868-0.688,4.404
				c0,4.522,2.081,8.564,5.333,11.228H86.58L111.145,86.435z M134.141,102.067c3.252-2.664,5.332-6.706,5.332-11.228
				c0-1.536-0.243-3.014-0.688-4.404l24.564,15.632H134.141z"/>
		</g>
		<g id="roof">
			<g>
				<path fill="#C6839A" d="M195.9,97.269l-0.52-0.331l-66.753-42.513c-0.048-0.031-0.1-0.055-0.149-0.084
					c-0.112-0.067-0.224-0.132-0.339-0.193c-0.098-0.051-0.195-0.099-0.294-0.145c-0.099-0.046-0.197-0.089-0.297-0.13
					c-0.118-0.049-0.237-0.093-0.356-0.136c-0.085-0.029-0.169-0.056-0.254-0.082c-0.134-0.041-0.267-0.078-0.401-0.11
					c-0.078-0.019-0.157-0.036-0.235-0.052c-0.139-0.028-0.276-0.053-0.416-0.072c-0.084-0.012-0.168-0.021-0.254-0.029
					c-0.13-0.014-0.26-0.025-0.39-0.031c-0.092-0.003-0.184-0.005-0.277-0.005c-0.093,0-0.185,0.001-0.277,0.005
					c-0.13,0.006-0.26,0.017-0.391,0.031c-0.085,0.008-0.169,0.018-0.253,0.029c-0.139,0.019-0.276,0.044-0.415,0.072
					c-0.079,0.016-0.158,0.033-0.236,0.052c-0.135,0.032-0.269,0.069-0.402,0.11c-0.084,0.026-0.168,0.053-0.253,0.082
					c-0.12,0.042-0.239,0.087-0.357,0.136c-0.1,0.041-0.198,0.084-0.296,0.13c-0.099,0.046-0.197,0.094-0.293,0.145
					c-0.115,0.061-0.229,0.125-0.34,0.193c-0.049,0.029-0.1,0.053-0.149,0.084L54.549,96.938c-0.017,0.01-0.206,0.125-0.52,0.331
					c-2.817,1.844-15.801,11.156-7.349,20.935c0.254-0.12,0.507-0.249,0.75-0.404l77.534-49.364l77.534,49.364
					c0.243,0.155,0.496,0.283,0.75,0.404C211.701,108.425,198.718,99.112,195.9,97.269z"/>
			</g>
		</g>
		<g id="door">
			<g display="none">
				<g display="inline">
					<path fill="#AA6B7D" d="M101.541,196.409v-34.713c0-12.916,10.508-23.425,23.424-23.425c12.917,0,23.425,10.509,23.425,23.425
						v34.713H101.541z"/>
					<path fill="#C6839A" d="M124.964,141.771c11.004,0,19.925,8.92,19.925,19.925v31.213h-39.849v-31.213
						C105.041,150.691,113.96,141.771,124.964,141.771 M124.964,134.771c-14.846,0-26.924,12.078-26.924,26.925v31.213v7h7h39.849h7
						v-7v-31.213C151.89,146.85,139.811,134.771,124.964,134.771L124.964,134.771z"/>
				</g>
			</g>
			<g>
				<path fill="#AA6B7D" d="M144.89,158.41c0-11.005-8.921-19.925-19.925-19.925c-11.004,0-19.924,8.92-19.924,19.925v31.213h39.849
					V158.41z"/>
				<path fill="#C6839A" d="M124.964,130.44c-15.422,0-27.968,12.547-27.968,27.97v31.213h8.044V158.41
					c0-11.005,8.92-19.925,19.924-19.925c11.004,0,19.925,8.92,19.925,19.925v31.213h8.045V158.41
					C152.935,142.987,140.387,130.44,124.964,130.44z"/>
			</g>
		</g>
		<g id="windows">
		</g>
	</g>
	<g id="lines" display="inline">
	</g>
</g>
<g id="works" display="none">
	<g id="icon_1_" display="inline">
		<g id="contents">
			<rect x="83.004" y="77.109" fill="#AA6B7D" width="83.992" height="95.781"/>
			<g id="flower_1_">
				<g id="stem">
					<rect x="122.5" y="122.833" fill="#C6839A" width="5" height="30.5"/>
					<path fill="#C6839A" d="M131.161,140.488c-7.74,5.195-7.144,11.928-7.144,11.928s6.003,3.1,13.744-2.098
						c7.741-5.197,9.971-13.824,9.971-13.824S138.902,135.291,131.161,140.488z"/>
					<path fill="#C6839A" d="M118.837,140.488c7.741,5.195,7.145,11.928,7.145,11.928s-6.004,3.1-13.744-2.098
						c-7.741-5.197-9.971-13.824-9.971-13.824S111.096,135.291,118.837,140.488z"/>
				</g>
				<path id="blossom" fill="#D1A3B6" d="M140.739,99.958l-7.869,7.375L125,96.667l0,0l-7.87,10.666l-7.87-7.375
					c0,0-7.036,20.387,4.708,25.406c4.978,2.128,11.031,1.865,11.031,1.865s6.053,0.264,11.03-1.864
					C147.775,120.346,140.739,99.958,140.739,99.958z"/>
			</g>
		</g>
		<g id="frame">
			<polygon fill="none" points="166.996,84.477 166.996,77.109 159.629,77.109 90.372,77.109 83.004,77.109 83.004,84.477 
				83.004,165.522 83.004,172.891 90.372,172.891 159.629,172.891 166.996,172.891 166.996,165.522 			"/>
			<path fill="#C6839A" d="M166.996,84.477v81.045v7.368l13.041,13.041c1.228-1.66,1.963-3.708,1.963-5.932V70
				c0-2.224-0.734-4.271-1.963-5.932l-13.041,13.041V84.477z"/>
			<path fill="#D1A3B6" d="M90.372,77.109h69.257h7.367l13.041-13.041C178.216,61.604,175.299,60,172,60H78
				c-3.299,0-6.216,1.604-8.037,4.068l13.041,13.041H90.372z"/>
			<path fill="#D1A3B6" d="M166.996,172.891h-7.367H90.372h-7.368l-13.041,13.041C71.784,188.396,74.701,190,78,190h94
				c3.299,0,6.216-1.604,8.037-4.068L166.996,172.891z"/>
			<path fill="#C6839A" d="M83.004,165.522V84.477v-7.368L69.963,64.068C68.735,65.729,68,67.776,68,70v110
				c0,2.224,0.735,4.271,1.963,5.932l13.041-13.041V165.522z"/>
		</g>
	</g>
</g>
<g id="me" display="none">
	<circle id="base_2_" display="inline" fill="#D1A3B6" cx="125" cy="124.565" r="68.667"/>
	<g id="mouth">
		<path display="inline" fill="#AA6B7D" d="M125,164.491c-7.816,0-14.175-6.358-14.175-14.175c0-1.83,1.483-3.313,3.313-3.313
			s3.314,1.483,3.314,3.313c0,4.161,3.386,7.548,7.547,7.548c4.161,0,7.548-3.387,7.548-7.548c0-1.83,1.482-3.313,3.313-3.313
			c1.83,0,3.313,1.483,3.313,3.313C139.175,158.133,132.816,164.491,125,164.491z"/>
	</g>
	<g id="blush" display="inline">
		<circle fill="#C6839A" cx="82.843" cy="153.098" r="17.673"/>
		<circle fill="#C6839A" cx="167.158" cy="153.098" r="17.673"/>
	</g>
	<g id="eyes" display="inline">
		<path fill="#AA6B7D" d="M100.477,124.363c-1.891,0-3.423,1.532-3.423,3.423c0,3.271-2.661,5.932-5.932,5.932
			c-3.271,0-5.932-2.66-5.932-5.932c0-1.891-1.532-3.423-3.422-3.423s-3.422,1.532-3.422,3.423c0,1.002,0.127,1.973,0.347,2.91
			l-3.157,3.155c-1.336,1.338-1.336,3.505,0,4.841c0.669,0.669,1.544,1.003,2.42,1.003c0.876,0,1.752-0.334,2.42-1.002l1.801-1.8
			c2.307,2.268,5.464,3.67,8.945,3.67c7.045,0,12.777-5.731,12.777-12.777C103.899,125.896,102.367,124.363,100.477,124.363z"/>
		<path fill="#AA6B7D" d="M172.043,124.363c-1.891,0-3.423,1.532-3.423,3.423c0,3.271-2.659,5.932-5.932,5.932
			c-3.271,0-5.933-2.66-5.933-5.932c0-1.891-1.531-3.423-3.422-3.423s-3.423,1.532-3.423,3.423c0,1.002,0.128,1.973,0.349,2.91
			l-3.158,3.155c-1.336,1.338-1.336,3.505-0.001,4.841c0.669,0.669,1.546,1.003,2.422,1.003c0.875,0,1.751-0.334,2.42-1.002
			l1.801-1.799c2.307,2.267,5.464,3.669,8.945,3.669c7.045,0,12.777-5.731,12.777-12.777
			C175.466,125.896,173.934,124.363,172.043,124.363z"/>
	</g>
	<g id="flower" display="inline">
		<path fill="#C6839A" d="M177.041,76.848c0,5.82-3.223,10.538-7.197,10.538s-7.197-4.718-7.197-10.538s4.718-13.265,7.197-13.265
			C172.447,63.583,177.041,71.028,177.041,76.848z"/>
		<path fill="#C6839A" d="M162.646,106.706c0-5.819,3.223-10.537,7.197-10.537s7.197,4.718,7.197,10.538s-4.718,13.264-7.197,13.265
			C167.24,119.971,162.646,112.526,162.646,106.706z"/>
		<path fill="#C6839A" d="M184.773,98.976c-5.819,0-10.537-3.223-10.537-7.198s4.718-7.198,10.537-7.198s13.265,4.719,13.265,7.198
			C198.038,94.38,190.593,98.976,184.773,98.976z"/>
		<path fill="#C6839A" d="M154.915,84.579c5.82,0,10.536,3.223,10.536,7.198s-4.718,7.198-10.537,7.198s-13.264-4.719-13.265-7.198
			C141.65,89.174,149.095,84.579,154.915,84.579z"/>
		<path fill="#C6839A" d="M164.376,76.131c4.116,4.116,5.172,9.73,2.362,12.541c-2.812,2.811-8.426,1.754-12.54-2.361
			c-4.116-4.115-6.044-12.716-4.291-14.469C151.748,70,160.261,72.016,164.376,76.131z"/>
		<path fill="#C6839A" d="M175.311,107.424c-4.115-4.116-5.171-9.73-2.361-12.541c2.812-2.811,8.426-1.754,12.54,2.361
			c4.116,4.115,6.044,12.715,4.291,14.469C187.938,113.554,179.425,111.539,175.311,107.424z"/>
		<path fill="#C6839A" d="M185.489,86.31c-4.114,4.115-9.729,5.172-12.54,2.361c-2.81-2.811-1.754-8.426,2.362-12.541
			c4.115-4.116,12.716-6.043,14.469-4.29C191.62,73.682,189.605,82.195,185.489,86.31z"/>
		<path fill="#C6839A" d="M154.198,97.244c4.114-4.115,9.729-5.171,12.54-2.36c2.81,2.811,1.754,8.425-2.362,12.541
			c-4.115,4.115-12.716,6.042-14.469,4.289C148.067,109.872,150.082,101.359,154.198,97.244z"/>
		<circle fill="#AA6B7D" cx="169.844" cy="91.777" r="6.523"/>
	</g>
</g>
<g id="contact" display="none">
	<g id="base_1_" display="inline">
		<path fill="#D1A3B6" d="M188.146,92.399L127.028,128c-0.612,0.416-1.321,0.623-2.029,0.623s-1.416-0.207-2.029-0.623
			L61.853,92.399c-0.386-0.261-0.698-0.588-0.947-0.95v76.884h128.189V91.449C188.846,91.812,188.532,92.138,188.146,92.399z"/>
		<path fill="#C6839A" d="M61.853,157.602L122.971,122c0.613-0.415,1.32-0.622,2.029-0.622c0.707,0,1.416,0.207,2.028,0.622
			l61.118,35.602c0.386,0.26,0.699,0.588,0.948,0.949v9.783H60.906v-9.783C61.155,158.189,61.467,157.861,61.853,157.602z"/>
		<path fill="#C6839A" d="M61.853,92.399L122.971,128c0.613,0.416,1.321,0.623,2.029,0.623s1.417-0.207,2.029-0.623l61.118-35.601
			c0.386-0.261,0.699-0.588,0.948-0.95v-9.783H60.906v9.783C61.155,91.812,61.467,92.138,61.853,92.399z"/>
	</g>
	<g id="heart" display="inline">
		<path fill="#AA6B7D" d="M132.539,114.623c-4.164,0-7.539,3.376-7.539,7.539c0-4.163-3.375-7.539-7.539-7.539
			c-4.163,0-7.539,3.376-7.539,7.539c0,0-0.002,0.16,0.023,0.452c0.03,0.499,0.107,0.984,0.229,1.452
			c0.73,3.323,3.592,10.274,14.826,14.924c11.233-4.65,14.096-11.602,14.825-14.924c0.123-0.468,0.2-0.953,0.229-1.452
			c0.024-0.292,0.023-0.452,0.023-0.452C140.078,117.999,136.702,114.623,132.539,114.623z"/>
	</g>
</g>
<g id="sunflower" display="none">
	<g>
		
			<image display="inline" overflow="visible" opacity="0.5" width="1159" height="1158" xlink:href="BEF01198.png"  transform="matrix(0.24 0 0 0.24 -14.084 -8.978)">
		</image>
		<g display="inline">
			<polygon fill="#FFFFFF" points="209.371,145.635 213.075,147.266 249.019,125.329 213.243,103.126 209.521,104.731 
				224.111,65.696 205.991,72.154 224.045,26.734 178.496,44.445 185.091,26.378 143.171,41.682 125.644,1.022 107.81,41.554 
				66.009,25.932 72.535,44.242 26.629,25.995 44.307,71.458 26.478,64.95 41.755,106.79 0.916,124.398 41.621,142.314 
				26.031,184.033 43.905,177.662 25.884,222.988 71.931,205.086 65.263,223.35 107.182,208.043 124.707,248.703 142.548,208.178 
				184.35,223.797 177.89,205.682 223.302,223.734 205.592,178.18 223.665,184.775 			"/>
		</g>
	</g>
	<g id="sunflower_1_">
		<g>
			<g display="inline">
				<polygon fill="#E0C75F" points="75.105,125.251 44.647,106.508 1.613,125.251 				"/>
				<polyline fill="#D1BB5D" points="1.613,125.251 75.105,125.251 44.647,143.998 1.613,125.251 				"/>
			</g>
			<g display="inline">
				<polygon fill="#E0C75F" points="212.346,125.251 181.891,106.508 138.853,125.251 				"/>
				<polyline fill="#D1BB5D" points="138.853,125.251 212.346,125.251 181.891,143.998 138.853,125.251 				"/>
			</g>
			<g display="inline">
				<polygon fill="#E0C75F" points="107.159,93.555 88.413,63.102 107.159,20.065 				"/>
				<polyline fill="#D1BB5D" points="107.159,20.065 107.159,93.555 125.902,63.102 107.159,20.065 				"/>
			</g>
			<g display="inline">
				<polygon fill="#E0C75F" points="107.159,156.95 88.413,187.408 107.159,230.443 				"/>
				<polyline fill="#D1BB5D" points="107.159,230.443 107.159,156.95 125.902,187.408 107.159,230.443 				"/>
			</g>
			<g display="inline">
				<polygon fill="#E0C75F" points="75.105,93.555 40.315,85.276 23.137,41.591 				"/>
				<polyline fill="#D1BB5D" points="23.137,41.591 75.105,93.555 66.823,58.765 23.137,41.591 				"/>
			</g>
			<g display="inline">
				<polygon fill="#E0C75F" points="75.105,156.95 40.315,165.232 23.137,208.916 				"/>
				<polyline fill="#D1BB5D" points="23.137,208.916 75.105,156.95 66.823,191.74 23.137,208.916 				"/>
			</g>
			<g display="inline">
				<polygon fill="#E0C75F" points="138.855,156.95 173.646,165.232 190.824,208.916 				"/>
				<polyline fill="#D1BB5D" points="190.824,208.916 138.855,156.95 147.136,191.74 190.824,208.916 				"/>
			</g>
			<g display="inline">
				<polygon fill="#E0C75F" points="138.855,93.555 173.646,85.276 190.824,41.591 				"/>
				<polyline fill="#D1BB5D" points="190.824,41.591 138.855,93.555 147.136,58.765 190.824,41.591 				"/>
			</g>
		</g>
		<polygon display="inline" fill="#AD9B4D" points="87.926,124.7 44.282,113.503 26.544,64.928 88.064,87.382 		"/>
		<polygon display="inline" fill="#AD9B4D" points="87.926,124.7 44.199,135.569 26.097,184.014 87.785,162.021 		"/>
		<polygon display="inline" fill="#AD9B4D" points="162.353,124.98 206.073,114.112 224.177,65.674 162.49,87.662 		"/>
		<polygon display="inline" fill="#AD9B4D" points="162.353,124.98 205.988,136.184 223.73,184.756 162.211,162.301 		"/>
		<polygon display="inline" fill="#AD9B4D" points="125.383,87.736 114.512,44.012 66.072,25.91 88.064,87.595 		"/>
		<polygon display="inline" fill="#AD9B4D" points="125.383,87.736 136.579,44.091 185.156,26.357 162.697,87.875 		"/>
		<polygon display="inline" fill="#AD9B4D" points="125.102,161.947 113.903,205.592 65.327,223.326 87.785,161.809 		"/>
		<polygon display="inline" fill="#AD9B4D" points="125.102,161.947 135.976,205.678 184.416,223.779 162.418,162.088 		"/>
		<g display="inline">
			<polygon fill="#EFD565" points="0.982,124.376 51.563,146.638 87.502,124.7 51.729,102.497 			"/>
			<polygon fill="#EFD565" points="249.084,125.305 213.309,103.105 162.56,124.98 213.141,147.244 			"/>
			<polygon fill="#EFD565" points="103.452,51.583 125.383,87.521 147.586,51.75 125.708,1.001 			"/>
			<polygon fill="#EFD565" points="102.9,197.934 124.775,248.682 147.036,198.102 125.102,162.16 			"/>
			<polygon fill="#EFD565" points="26.693,25.974 46.724,77.479 87.644,87.379 78.047,46.385 			"/>
			<polygon fill="#EFD565" points="25.951,222.963 77.459,202.943 87.36,162.02 46.368,171.615 			"/>
			<polygon fill="#EFD565" points="162.418,162.301 172.009,203.299 223.368,223.713 203.34,172.205 			"/>
			<polygon fill="#EFD565" points="224.111,26.713 172.601,46.741 162.7,87.662 203.697,78.068 			"/>
		</g>
		<path display="inline" fill="#634D56" d="M125.482,61.011c-33.599-0.124-60.936,27.008-61.063,60.607
			c-0.126,33.595,27.006,60.933,60.604,61.06c33.595,0.129,60.938-27.005,61.063-60.602
			C186.213,88.477,159.078,61.139,125.482,61.011z"/>
		<g display="inline">
			<path fill="#70646B" d="M170.04,178.086c-0.231,0.191,0.49,0.615,0.584,0.74C170.769,178.316,169.859,177.965,170.04,178.086z"/>
			<polygon fill="#70646B" points="171.365,173.098 171.59,173.359 171.308,172.303 			"/>
			<path fill="#70646B" d="M173.866,169.402c-1.421-0.426-0.707,1.465-1.572,1.848l-0.339-0.074l0.741,0.939
				C173.092,171.205,173.159,169.748,173.866,169.402z"/>
			<path fill="#70646B" d="M177.738,168.986c-0.55-0.162-0.13-0.699-0.446,0.396c0.08-0.016,0.116-0.01,0.173-0.016
				C177.512,169.277,177.582,169.164,177.738,168.986z"/>
			<path fill="#70646B" d="M177.465,169.367C177.243,169.803,178.022,169.344,177.465,169.367L177.465,169.367z"/>
			<path fill="#70646B" d="M178.357,167.299l0.09,0.797c0.353,0.055,0.712-0.395,0.805-0.092
				C179.363,167.305,179.01,167.258,178.357,167.299z"/>
			<path fill="#70646B" d="M177.782,166.264l0.004,0.383C177.938,166.668,178.022,166.615,177.782,166.264z"/>
			<path fill="#70646B" d="M177.807,167.465l-0.021-0.818c-0.243-0.041-0.64-0.266-0.028,0.354
				C177.429,166.736,177.707,167.059,177.807,167.465z"/>
			<path fill="#70646B" d="M177.414,167.689c-0.448,0.145-0.849,0.426-0.941-0.363C176.019,168.447,176.954,168.828,177.414,167.689
				z"/>
			<path fill="#70646B" d="M172.76,168.418l-0.603,0.154l0.179,0.588C172.247,168.867,173.152,168.633,172.76,168.418z"/>
			<path fill="#70646B" d="M180.962,164.207c-0.246-0.18-0.81-0.199-1.167-0.342l0.072,0.576
				C180.163,164.332,180.555,164.021,180.962,164.207z"/>
			<path fill="#70646B" d="M179.795,163.865l-0.12-0.861C179.321,163.52,179.48,163.738,179.795,163.865z"/>
			<polygon fill="#70646B" points="176.479,165.367 176.826,166.891 176.58,165.178 			"/>
			<polygon fill="#70646B" points="182.278,161.838 182.716,162.523 182.101,161.395 			"/>
			<path fill="#70646B" d="M182.968,160.172c0.382,0.525,1.058,0.063,1.239,0.504c0.122-0.49-0.133-1.084-0.372-1.615
				C183.882,159.528,183.636,159.887,182.968,160.172z"/>
			<path fill="#70646B" d="M183.525,158.217c0.036,0.239,0.171,0.531,0.31,0.844C183.806,158.814,183.728,158.544,183.525,158.217z"
				/>
			<path fill="#70646B" d="M180.383,162.031c0.183,0.039,0.659,0.174,1.02-0.086l-0.876-0.148
				C180.479,161.871,180.431,161.951,180.383,162.031z"/>
			<path fill="#70646B" d="M180.497,161.795l0.029,0.002c0.153-0.254,0.262-0.432,0.312-0.51
				C180.794,161.352,180.701,161.512,180.497,161.795z"/>
			<path fill="#70646B" d="M180.341,162.092l0.042-0.061C180.294,162.02,180.263,162.02,180.341,162.092z"/>
			<path fill="#70646B" d="M178.035,164.18c-0.214-0.592-0.256-1.568-1.281-1.211C177.123,163.506,177.708,163.297,178.035,164.18z"
				/>
			<path fill="#70646B" d="M179.243,161.893l-0.525,0.551c0.202,0.094,0.556,0.131,0.667,0.424L179.243,161.893z"/>
			<polygon fill="#70646B" points="179.178,161.451 179.243,161.893 179.436,161.688 			"/>
			<path fill="#70646B" d="M182.241,159.027c-0.19-0.449-0.065-0.775,0.056-1.161c-0.339,0.312-0.613,0.665-0.793,1.038
				C181.718,159.075,182.063,159.45,182.241,159.027z"/>
			<path fill="#70646B" d="M181.33,160.342l-0.012-0.087C181.232,160.264,181.195,160.283,181.33,160.342z"/>
			<path fill="#70646B" d="M183.896,154.299c-0.056,0-0.117,0-0.168-0.002l0.125,0.07L183.896,154.299z"/>
			<path fill="#70646B" d="M181.33,158.899c-0.288,0.215-0.186,0.473-0.035,0.756c0.032-0.253,0.093-0.505,0.209-0.751
				C181.405,158.829,181.334,158.79,181.33,158.899z"/>
			<path fill="#70646B" d="M183.622,157.051c-0.229,0.08-0.44,0.191-0.65,0.316C183.282,157.328,183.801,157.196,183.622,157.051z"
				/>
			<path fill="#70646B" d="M181.573,160.264c0.006,0.02,0.01,0.039,0.01,0.059C181.798,160.313,181.711,160.283,181.573,160.264z"/>
			<path fill="#70646B" d="M181.573,160.264c-0.033-0.201-0.168-0.412-0.278-0.608c-0.023,0.202-0.019,0.405,0.023,0.6
				C181.388,160.25,181.489,160.255,181.573,160.264z"/>
			<path fill="#70646B" d="M179.324,151.146c0.707,0.347,1.059,1.37,0.003,1.672c0.271,0.854,2.816,1.491,4.4,1.479
				c-0.31-0.154-0.602-0.281-0.741-1.127c-0.496,0.074-1.561,1.075-1.974,0.242c0.006-1.023,0.563-0.6,1.137-0.865
				c-1.049-0.012-0.863-1.652-2.294-1.998l0.173,0.945C179.819,151.424,179.603,151.02,179.324,151.146z"/>
			<path fill="#70646B" d="M183.094,155.547l-0.033,0.316c0.265-0.258,0.65-0.36,1.4-0.533c-0.15-0.619-0.38-0.826-0.608-0.963
				l-0.692,1.32L183.094,155.547z"/>
			<path fill="#70646B" d="M182.521,157.109c-0.682-0.578-0.729-1.383-1.746-1.367c-0.294,0.822,0.408,0.857,0.516,1.486
				c0.417-1.365,0.264,0.574,1.135-0.151c0.025,0.319-0.058,0.56-0.129,0.789c0.207-0.186,0.443-0.351,0.675-0.499l-0.058,0.008
				l-0.003,0.004l-0.012-0.004c-0.12,0.012-0.186,0.004-0.103-0.035c-0.01-0.01-0.005-0.029-0.003-0.034
				c-0.104-0.061-0.189-0.129-0.268-0.196c0.324-0.306,0.227,0.033,0.268,0.196l0.105,0.069h0.015l0.146-1.512
				C182.831,156.092,182.701,156.448,182.521,157.109z"/>
			<path fill="#70646B" d="M175.501,161.432c0.086-0.002,0.141,0.027,0.194,0.057C175.647,161.361,175.602,161.295,175.501,161.432z
				"/>
			<path fill="#70646B" d="M176.229,161.184c0.059,0.143,0.314,0.383,0.081,0.625c-0.36,0.123-0.358-0.199-0.615-0.32
				c0.108,0.277,0.205,0.898,0.87,0.561l-0.055-0.145c0.522-0.344,1.814-0.473,1.875-0.334
				C177.621,161.352,177.069,161.219,176.229,161.184z"/>
			<path fill="#70646B" d="M179.21,159.085l0.135-1.228l-0.924,0.199l0.408,0.17C178.386,158.738,178.939,158.857,179.21,159.085z"
				/>
			<polygon fill="#70646B" points="184.342,154.34 185.106,154.84 184.21,153.707 			"/>
			<polygon fill="#70646B" points="184.846,152.861 185.559,153.212 185.26,152.646 			"/>
			<path fill="#70646B" d="M159.469,79.91l-0.382-0.002C159.252,79.932,159.369,79.931,159.469,79.91z"/>
			<path fill="#70646B" d="M161.209,81.334l0.283-0.271C161.276,81.167,161.146,81.264,161.209,81.334z"/>
			<path fill="#70646B" d="M190.517,114.878c0.668-0.607,1.694-1.354,0.831-1.174l-0.828,0.274
				C190.727,114.325,190.685,114.617,190.517,114.878z"/>
			<path fill="#70646B" d="M177.27,92.295c-0.048,0.082-0.097,0.171-0.146,0.258c0.315-0.057,0.608-0.11,0.876-0.159
				C177.776,92.363,177.531,92.33,177.27,92.295z"/>
			<path fill="#70646B" d="M174.085,93.928l0.144-0.811C174.139,93.339,174.088,93.605,174.085,93.928z"/>
			<path fill="#70646B" d="M148.458,74.392l-0.701,0.623C148.255,75.269,148.233,74.759,148.458,74.392z"/>
			<path fill="#70646B" d="M189.179,137.445c0.42-0.369,0.636-0.696,0.738-0.994C189.32,136.891,188.504,137.163,189.179,137.445z"
				/>
			<path fill="#70646B" d="M165.673,73.156c-0.265-0.012-0.445,0.072-0.555,0.23C165.384,73.405,165.583,73.353,165.673,73.156z"/>
			<path fill="#70646B" d="M190.142,135.17c-0.099,0.063-0.153,0.137-0.239,0.202c0.098,0.349,0.158,0.699,0.015,1.079
				C190.37,136.133,190.663,135.711,190.142,135.17z"/>
			<path fill="#70646B" d="M106.343,71.4c-0.043-0.027-0.087-0.031-0.132-0.063C106.247,71.448,106.29,71.44,106.343,71.4z"/>
			<path fill="#70646B" d="M90.095,70.203c0.095-0.125,0.293-0.258,0.473-0.393C90.445,69.823,90.295,69.929,90.095,70.203z"/>
			<path fill="#70646B" d="M187.344,147.061C187.29,147.398,187.418,147.145,187.344,147.061L187.344,147.061z"/>
			<path fill="#70646B" d="M183.622,147.49c-0.069-0.098-0.169-0.186-0.357-0.258C183.454,147.324,183.564,147.41,183.622,147.49z"
				/>
			<path fill="#70646B" d="M185.328,131.181l0.009-0.026C185.156,131.227,185.188,131.213,185.328,131.181z"/>
			<path fill="#70646B" d="M186.815,147.418c0.136-0.088,0.268-0.195,0.375-0.327C187.105,147.137,186.986,147.232,186.815,147.418z
				"/>
			<path fill="#70646B" d="M187.225,147.48c-0.067,0.1-0.119,0.178-0.171,0.254C187.179,147.816,187.275,147.813,187.225,147.48z"/>
			<path fill="#70646B" d="M187.444,146.605c-0.05,0.186-0.14,0.344-0.254,0.485c0.078-0.044,0.129-0.054,0.153-0.03
				C187.364,146.967,187.393,146.83,187.444,146.605z"/>
			<path fill="#70646B" d="M129.53,65.595c-0.02-0.028-0.038-0.046-0.056-0.088C129.143,65.845,129.279,65.797,129.53,65.595z"/>
			<path fill="#70646B" d="M180.219,108.458c0.011,0.011,0.034,0.013,0.05,0.023l0.019-0.05L180.219,108.458z"/>
			<path fill="#70646B" d="M179.306,107.631c1.157,0.132,1.101,0.421,0.981,0.8l2.295-0.982L179.306,107.631z"/>
			<path fill="#70646B" d="M154.837,77.136l0.225,1.031c-1.431,0.634-1.729-0.054-1.721,1.219c0.743-1.125,1.397-0.839,2.024-0.516
				c0.614,0.337,1.231,0.672,2.024-0.416l0.084,0.743c-0.1-0.1-0.207,0.021-0.307-0.079c0.043,1.588,1.683-1.216,2.489-0.203
				c0.244,0.403,0.225,0.921-0.188,0.995l1.144,0.046c0.189,0.213-0.149,0.543-0.332,0.334l1.27,0.718l-0.058,0.056
				c0.423-0.207,1.205-0.426,1.565-0.497c0.055,0.527-0.326,0.104-0.462,0.425l1.053-0.001c-0.195,0.747-1.143,0.835-1.521,0.43
				c-1.119,2.531,0.978-0.125,1.146,2.143l-0.777-0.232c-0.648,1.476,0.136,1.434,0.1,2.678c0.21-0.483,0.372-2.891,1.452-2.828
				c0.048,0.316,0.219,0.597,0.933,0.508c-0.643,0.708-0.147,0.833,0.312,1.168l-0.905,0.897c0.675,0.157,1.089-0.337,1.738-0.489
				c0.394,0.579-0.21,1.371-0.692,2.06c0.604,0.903,0.606-1.631,1.674-0.887c0.297,0.976,1.101,1.065,2.371,1.415
				c0.085,0.773-0.658,0.425-0.785,0.838l1.134-0.231c0.075,0.122-0.192,0.288-0.33,0.372c0.612,0.111,0.995-0.791,1.763-0.427
				c1.252-0.724-0.611,2.478,1.182,2.269c-0.155,0.399-0.692,0.374-1.043,0.725c1.591,0.408,1.257,0.419,3.036,0.487l-0.205,1.233
				c0.438-1.09,1.833-0.999,3.041-0.822c0.259-0.457,0.478-0.857,0.559-1.087l1.268,0.724c-0.09,0.241-0.531,0.357-1.097,0.462
				c0.137,0.017,0.266,0.034,0.387,0.036c-0.158,0.631-0.915,0.807-1.691,0.915c0.142-0.258,0.288-0.526,0.429-0.792
				c-0.818,0.148-1.688,0.375-2.277,0.83c0.166-0.013,0.352,0.045,0.496,0.147c-0.216,0.047-0.399,0.104-0.489,0.204
				c-0.093,0.105,0.215,0.061,0.593,0.052l-1.061,0.975l0.515-0.239c0,0,0.02,0.438,0.031,0.879c0.029,0.43,0,0.882,0,0.882
				c1.728,0.253,4.121,0.111,5.452,1.556c-1.129,0.029-1.57,0.646-2.693,1.153c0.996-1.027-1.113-0.975-1.302-1.888
				c0.105,0.483-0.462,0.662-0.701,0.655c0,0,0.453,0.216,0.908,0.43c0.462,0.219,0.905,0.453,0.905,0.453
				c-0.92,0.41-0.536,0.646-0.743,1.203c1.665-1.143,1.697,0.546,2.536,0.915c-0.598,0.298-1.292,0.423-1.472-0.371
				c-1.025,1.397,2.642,0.118,1.793,1.444c-0.086-0.18-0.02-0.322-0.371-0.265c0.717,0.213,0.674,1.464,0.037,1.415l-0.082-0.178
				c0.119,0.657,0.459,1.586,0.983,2.317c0.464,0.751,1.128,1.312,1.968,1.171c-0.207,0.072-2.004,0.411-2.35,0.437
				c0,0,1.519,0.141,3.063,0.35c1.542,0.202,3.085,0.478,3.085,0.478c-1.46,0.159-4.614,1.764-5.68,0.923
				c-0.102,0.346-0.272,0.774,0.366,1.287c0.162-0.249,1.929-1.012,2.123-0.751c-1.398,1.166-0.719,0.76-1.853,2.01
				c0.236-0.375,2.534-0.502,2.581,0.03c-0.356-0.01-2.195,0.48-2.466,0.35c0,0,0.613,0.198,1.23,0.397
				c0.605,0.215,1.212,0.429,1.212,0.429c-0.447-0.249-1.872,0.284-2.454,0.663c0.411-0.2,0.121,1.067,0.39,1.36l0.434-0.602
				c-0.148,1.438,3.373,0.953,3.382,2.461c-0.475-0.136-2.86-0.117-3.08,0.624c1.163,0.185,5.614,0.975,6.602,2.339l-0.642,0.3
				l0.768,1.021c-1.703-0.634-5.443-2.181-6.942-2.925c-0.468,0.571-0.757,0.209-0.628,0.985c-0.587,0.316-0.965-0.351-1.021-0.57
				c0,0-0.058,0.449-0.117,0.901c-0.055,0.449-0.13,0.897-0.13,0.897c1.329-0.151,1.365,1.321,2.475,1.224
				c0,0-0.356-0.488-0.711-0.975c-0.347-0.487-0.744-0.95-0.744-0.95c1.347-0.186,3.854,0.95,3.639,2.344
				c-0.524,0.356-2.385-0.204-2.829-0.161c0.468,0.156,0.912,1.231,0.588,1.355l-0.729-0.551c-0.479,0.714,1.807,1.194,0.483,2.062
				c-0.1,0.307-1.754,0.843-0.967,0.921c1.545-0.423,6.26-0.409,7.391-0.007c-0.107,0.122-1.521,1.684-2.285,1.991
				c-1.214,0.441-2.813-0.957-3.854-0.577c0.361,0.042,0.803,0.349,0.941,0.476c-0.342,0.303-1.11-0.207-1.017,0.497
				c1.338,0.222-0.253,1.416,1.109,0.419c0.318,0.727-0.349,0.712-0.368,1.525c0.896-0.18,2.893,1.048,3.205,1.832
				c-0.335-0.084-0.805,0.02-1.022,0.071c-0.345,1.438-1.071,2.118-1.289,3.452c-0.328,0.069-0.859,0.627-1.374,0.252
				c0.198,0.231,0.609,0.489,0.556,0.904c-1.313,0.551,0.012-0.936-1.494-0.609c0.764,0.199,0.846,1.242,1.205,1.928
				c1.225,0.075,0.508-1.299,0.15-1.965c1.649,0.303,3.158,1.664,3.604,3.287c0.162,1.246-1.16,0.254-0.968,0.508
				c-0.792,2.039,2.363,2.536,0.733,4.021c-1.223,0.414-2.06-0.546-2.842-0.6c-0.147-1.005,1.025-1.206,1.15-1.837l-0.689,0.629
				c-0.268-0.381-0.368-1.044,0.019-1.297c-1.098,0.326-1.065,3.47-2.475,4.752c0.253,0.387,0.446,0.984,0.931,0.892l0.02-0.546
				c0.97-0.202,0.828,1.311,1.419,0.795c0.345,0.862,1.018,1.959,0.209,2.758l-1.211-0.234c0.342,0.104,0.921-0.372,0.648-0.768
				c0.393,0.592-2.088,0.885-0.746,1.865l1.046-0.376c0.321,0.885,1.206,2.2,0.519,2.922c1.27,0.046-0.057-0.243,1.491-0.354
				c-1.835-0.093,0.908-2.183-1.143-1.969c1.771-0.067,1.074-0.839,2.65-1.231c-0.384-0.104-0.821,0.053-0.395-0.625
				c-0.1-0.074-0.217-0.199-0.285-0.277c0.022-0.018,0.029-0.025,0.047-0.039l-0.057,0.023c-0.043-0.049-0.058-0.057-0.021,0.012
				c-0.219,0.121-0.465,0.193-0.699,0.179c-0.755-0.657-0.354-1.804-0.687-2.335c0.321-0.373,0.382,0.316,0.87,0.211l-0.495-0.795
				c0.87,0.207,1.791-0.732,1.962,0.453l0.318-0.929c0.629-0.419,1.031-1.147,0.797-1.718c0.31-0.405-0.656-1.382-0.08-0.816
				l-0.145-1.621l0.22,0.039c0.414-1.486-0.772-3.334,1.104-4.749c-0.142-0.548-0.334-1.114,0.05-1.921l0.786-0.051
				c-0.165-0.691,1.077-1.879,0.285-2.266c2.12-0.493,0.8-3.203,1.205-4.348l-1.001-0.103c0.086-0.804-0.169-1.597-0.54-2.598
				l-0.892,0.044c-0.674-0.853,0.643-2.173,0.52-3.538c0.343,0.083,0.262,0.429,0.063,0.677c0.981-0.833,0.606-1.701,0.136-2.504
				c-0.507-0.817-1.074-1.572-0.408-2.371c-0.354-0.334-0.27-0.607-0.066-0.887c0.004,0.034,0.021,0.066,0.057,0.085
				c0.004-0.036,0-0.093-0.003-0.151c0.136-0.175,0.298-0.363,0.424-0.563c-0.201,0.18-0.368,0.345-0.438,0.482
				c-0.039-0.28-0.188-0.695-0.482-1.08l0.924-0.302c-0.015-0.032-0.018-0.059-0.039-0.093c0.285-0.462-0.5-0.269-1.179,0.044
				c-0.191-0.188-0.405-0.351-0.654-0.465c1.473-0.556-0.68-0.991,0.877-1.706c-0.804-0.15-0.96-1.976-2.682-1.835
				c0.211-0.059,0.289-0.199,0.351,0.015c0.093-0.484,0.18-0.975-0.374-1.269l1.145-0.464l-1.809-0.592
				c0.589-0.765,0.909-1.125,1.988-0.768c-1.793-1.056-0.86-1.026-2.576-1.814l0.772-0.167c-0.157-0.424-1.359-0.78-0.813-1.23
				c1.106-1.433-1.437-4.674-1.319-7.566c-1.878,1.462,0.438-1.559-1.249-0.842c0.418-0.376,0.521-0.841,1.146-0.684
				c-1.106-0.924-0.197-2.203-1.957-2.271c0.407-0.41,0.836-0.146,1.047-0.428c-0.153-0.037-0.613-0.139-0.396-0.425
				c0.215-0.287,0.489-0.059,0.802,0.013c-0.758-1.182-2.322-0.391-3.711,0.341c0.282-0.953,0.003-1.195-1.127-1.037
				c0.313-0.474,0.557-1.105,1.156-0.504c-0.156-0.445-0.936-2.835-2.032-2.112c0.173-0.303-0.31-0.577-0.498-0.587
				c-0.558-0.88-0.524-1.023-1.224-1.771l0.003,0.355c-1.428,0.617-0.789-0.438-1.46-0.946l0.138-0.084
				c-0.376-2.143-0.917-0.26-1.18-2.504l-0.636,0.715c-1.595,1.237-0.239-1.986-1.561-2.232l-0.121,0.656
				c-0.891,0.09,0.831-3.137,0.561-3.773c0.028-0.224,0.348-0.057,0.57-0.018c-0.332-1.986-1.01,0.751-2.072,0.171
				c0.293-0.638,1.374-1.066,0.857-1.695c0.039-0.681-3.16,0.077-3.16-1.576c-0.142,0.548-0.292,1.087-0.963,1.056
				c-0.747-0.35-0.56-2.923-2.146-2.084c0.001-0.177,0.051-0.311,0.124-0.417c-0.734-0.079-2.079-0.636-2.894-0.118
				c1.363-3.061-4.067-0.838-2.445-3.336l-1.751-0.849l0.2-0.242c-0.971-0.805-1.703-0.405-2.427,0.027
				c-0.155-0.311,0.163-0.465,0.263-0.593c-1.302-1.359-1.549-1.344-3.551-0.674l0.3-0.951c-0.585,0.299-1.688-2.52-3.783-2.185
				c0.061-0.095,0.169-0.255,0.353-0.325c-2.202,0.219-3.458-4.335-5.396-1.253l-1.508,0.37c1.46,0.853-0.75,1.378-0.312,2.184
				c-0.65-0.049-1.23-1.562-0.402-1.503l0.063,0.209c0.906-1.69-1.809-1.231-1.397-2.437c-3.28-0.914-6.387-2.475-9.638-2.889
				l0.229,1.474l-1.092-0.165c-0.261-0.36-0.308-1.164,0.495-1.045c-0.361-0.852-1.399,0.59-1.434,0.904
				c-1.515-0.699,0.714-1.647,0.241-1.717l-0.663,0.063l0.14,0.179c-0.565,0.57-0.639,1.147-1.583,1.078
				c-0.597-0.295-0.291-0.898-0.527-0.957c0.005-0.103-0.078-0.151-0.368-0.044l-1.42-0.13l0.573,1.149
				c-0.62,0.56-1.31-0.068-0.656,1.235c-0.969-2.032-5.18-0.48-5.782-0.968c-0.761,0.946-1.592,0.995-2.635,1.074
				c0.293,0.188,0.635,1.435-0.253,1.437c-0.12-2.683-1.796-0.846-2.906-2.587c0.898,1.076-2.47,0.894-1.056,2.414
				c-0.777-0.032-0.273-0.958-0.98-1.429c-1.5,1.392-4.049,0.403-6.101,1.467c0.082,0.341,0.606,0.718,0.333,1.374l-1.706-1.229
				c-0.363,0.317,0.339,2.023-0.858,1.176c0.217,0.234,0.537,0.586,0.303,0.793c-2.327,0.031-4.268,1.267-6.159,2.456
				c-1.91,1.187-3.813,2.255-6.569,2.203c0.888,0.224,0.58,0.508,0.21,0.784c0.343-0.032,0.477,0.718,0.794,1.08
				c0,0-0.571-0.017-1.143-0.032c-0.581-0.022-1.144,0.005-1.144,0.005c0.502,1.266-1.554,1.283-0.94,2.396l0.327-0.532
				c0.301,1.63,2.838,1.985,3.863,3.598c-0.344-1.891,3.116,0.859,2.838-1.858c0.449,0.169,0.132,0.651,0.498,0.936
				c-0.168-0.854,0.058-1.255,0.891-1.299l0.035,0.212c1.667-1.217,2.831-0.975,5.098-1.494l-0.566-0.766
				c0.495-0.112,0.716,0.107,1.023,0.216c-0.112-1.545-1.267,0.557-1.503-1.09c1.396,1.374,3.236-1.437,4.477,0.376
				c0.691-0.288-0.62-0.928,0.087-1.201l0.405,0.478l-0.098-0.773c0.515-0.057,1.01,0.545,1.202,1.003
				c-0.132-0.012-0.267,0.249-0.369,0.334c0.833,0.43,1.58-0.842,1.865-0.707l-0.792-0.093c1.75-1.237,4.343-1.189,5.99-2.793
				l-0.249-0.396c1.316-1.181,1.299,0.188,2.876-0.491l-0.042,0.114c0.251-0.495,0.66-0.797,1.128-0.831
				c-0.331,0.59,0.941,0.852,0.482,1.522c1.497-1.089,0.692-0.785,1.589-2.56l0.341,0.698c0.3-0.707,0.294-1.061,1.137-1.354
				c-0.641,0.715,0.639,1.051-0.056,1.978c1.843,1.472,2.521-1.782,3.419,0.514c0.752-2.086-1.561-1.041-1.125-1.503
				c-0.426-0.645,0.612-1.562,1.196-1.393c0.592,0.048,1.026,2.615,2.4,2.585c-0.136-0.009-0.147,0.141-0.288,0.133
				c0.504,0.537,1.047-0.73,1.648,0.179c0.42-1.201,0.816,0.133,1.026-1.428l-1.319,0.268c0.734-0.357,1.583-2.138,2.759-1.163
				c-0.126,0.312-0.533,0.7-0.799,0.914c0.313,0.489,0.714-0.258,1.038,0.243c-0.261,1.559-1.609,0.229-2.455,1.367
				c0.323,0.69,1.534-1.03,1.02,0.641c0.735-2.107,1.313,0.337,2.417-1.146l-0.18,0.927c0.162-0.126,0.526-0.526,0.794-0.462
				l-0.647,1.142c0.885-0.926,1.269,1.101,2.052,0.638c-1.467-0.177-0.139-1.166-0.66-1.933c2.103-0.983,0.63,2.623,2.682,2.57
				c-0.294,0.074-0.885-0.772-0.369-1.106c0.343,0.274,0.765,0.735,0.875,1.263c1.354,0.106,0.036-0.99,0.735-1.427
				c0.162,1.233,0.753-0.263,1.454-0.442l-0.263,0.921c1.31,1.027,0.985-1.792,2.14-0.676l-0.989,1.091l0.81-0.12l-0.498,0.992
				c1.023-0.509,1.219-0.188,1.866,0.38c0.06-0.702,0.699-1.595,1.401-1.361c0.264,0.71-0.582,0.754,0.432,0.992
				c-0.438,0.477-0.938,1.091-1.044,0.106c-0.152,0.277-0.42,0.484-0.573,0.753c0.261,0.803,1.176,0.61,1.529,0.734
				c-0.123-0.084-0.261-0.191-0.29-0.35l1.884-0.699c0.076,0.429-0.205,0.618-0.483,0.808c0.315,0.023,0.674-0.296,1.115-0.19
				c-0.41,0.67-0.699,1.419-1.401,1.507l1.613-0.225c-0.05,0.351,0.285,1.142-0.003,1.333c0.496,0.738,2.376-0.635,3.032,0.387
				c0.117-0.112,0.272-0.192,0.517-0.191c0.789,0.604,1.089,1.833,2.609,1.414L151.586,77c0.914,0.177,0.1-1.986,1.641-1.681
				c1.14,0.157-0.249,1.234-0.132,1.761c0.792-0.35,2.339-1.099,2.576,0.364C155.256,77.503,155.148,77.2,154.837,77.136z
				 M164.044,83.156c-0.294,0.004-1.014,0.195-0.762-0.336C164.182,82.151,163.981,82.679,164.044,83.156z M176.61,94.692
				c-0.358,0.023-0.358-0.269-0.202-0.699C176.586,94.128,176.683,94.349,176.61,94.692z M187.664,143.353l-0.038-0.039
				C188.124,142.893,187.934,143.038,187.664,143.353z M186.974,144.317c0.095,0.146,0.224,0.177,0.366,0.166
				c-0.208-0.142-0.164-0.39-0.022-0.646C187.056,143.845,186.854,143.935,186.974,144.317z M126.467,58.989l0.215,0.251
				C126.18,59.513,126.322,59.266,126.467,58.989z"/>
			<path fill="#70646B" d="M174.453,93.743c0.105-0.138,0.249-0.25,0.393-0.359C174.66,93.399,174.505,93.498,174.453,93.743z"/>
			<path fill="#70646B" d="M148.588,74.276c-0.004-0.011-0.016-0.015-0.025-0.024c-0.039,0.042-0.074,0.091-0.104,0.14
				L148.588,74.276z"/>
			<path fill="#70646B" d="M181.972,126.729c0.145-0.195,0.324-0.303,0.508-0.368C182.246,126.339,182.044,126.419,181.972,126.729z
				"/>
			<path fill="#70646B" d="M186.62,150.471l0.021-0.763c-0.077,0.347-0.321,0.39-0.525,0.502
				C186.333,150.271,186.687,150.254,186.62,150.471z"/>
			<path fill="#70646B" d="M178.838,153.877c0.067,0.139-0.071,0.197-0.003,0.334l0.417,0.156
				C179.396,153.968,179.186,153.554,178.838,153.877z"/>
			<path fill="#70646B" d="M183.402,149.977c-0.773-0.234-0.671,0.27-0.708,0.781c0.01-0.029,0.013-0.056,0.034-0.08
				C183.729,151.221,183.567,150.592,183.402,149.977z"/>
			<path fill="#70646B" d="M182.68,150.873c-0.018,0.156-0.051,0.307-0.141,0.429C182.94,151.523,182.694,151.165,182.68,150.873z"
				/>
			<path fill="#70646B" d="M187.047,145.824c-0.268,0.16,0.938,0.447,0.582,0.482C188.528,146.861,186.938,144.414,187.047,145.824z
				"/>
			<polygon fill="#70646B" points="180.781,149.4 181.773,149.594 181.118,149.06 			"/>
			<path fill="#70646B" d="M182.74,146.094l-0.496,0.642c0.163,0.041,0.224,0.165,0.259,0.304
				C182.678,146.601,183.031,146.17,182.74,146.094z"/>
			<path fill="#70646B" d="M182.503,147.039c-0.096,0.227-0.145,0.461-0.042,0.641C182.504,147.555,182.557,147.266,182.503,147.039
				z"/>
			<polygon fill="#70646B" points="180.872,148.324 181.145,148.188 181.402,147.71 			"/>
			<path fill="#70646B" d="M185.146,138.196l-0.104-0.885c-0.316-0.153-0.57,0.024-0.499,0.356
				C184.731,137.914,184.798,138.247,185.146,138.196z"/>
			<path fill="#70646B" d="M181.907,139.98c0.259-0.161,0.479-0.117,0.829-0.161l-1.192-0.327L181.907,139.98z"/>
			<path fill="#70646B" d="M182.188,137.621c-0.316-0.161-0.719-1.35-0.854-0.342C181.651,137.426,181.763,138.281,182.188,137.621z
				"/>
			<polygon fill="#70646B" points="185.392,125.68 185.402,125.891 187.425,125.961 			"/>
			<path fill="#70646B" d="M180.178,115.392c-0.35,0.945,1.288,0.059,0.763,0.945c0.492,0.163,0.433-0.726,0.861-0.555
				C181.22,115.289,181.459,114.978,180.178,115.392z"/>
			<path fill="#70646B" d="M181.802,115.782c0.086,0.078,0.191,0.161,0.33,0.246C181.99,115.881,181.891,115.815,181.802,115.782z"
				/>
			<polygon fill="#70646B" points="87.443,70.79 86.637,70.869 87.404,71.142 			"/>
			<path fill="#70646B" d="M87.32,72.766l-0.929-0.916l0.405,1.158C86.88,72.871,87.044,72.604,87.32,72.766z"/>
			<path fill="#70646B" d="M163.485,86.135l0.246-0.199c0.163-0.303,0.082-0.411-0.08-0.625L163.485,86.135z"/>
			<polygon fill="#70646B" points="158.129,80.512 158.227,80.61 158.694,79.517 			"/>
			<path fill="#70646B" d="M151.827,78.257c0.202,0.177,0.602,0.112,0.809,0.289C152.032,78.435,152.492,76.958,151.827,78.257z"/>
		</g>
		<g display="inline">
			<path fill="#70646B" d="M166.197,150.609c0.175-0.215-0.639-0.43-0.763-0.52C165.43,150.551,166.404,150.678,166.197,150.609z"/>
			<path fill="#70646B" d="M166.155,155.4l-0.275-0.225l0.443,0.953C166.323,156.129,166.173,155.405,166.155,155.4z"/>
			<path fill="#70646B" d="M164.141,159.031c1.408,0.378,0.53-1.44,1.325-1.835l0.345,0.046l-0.844-0.828
				C164.698,157.267,164.788,158.676,164.141,159.031z"/>
			<path fill="#70646B" d="M160.386,159.15c0.53,0.207,0.144,0.631,0.416-0.295c-0.078,0.006-0.116-0.004-0.168-0.004
				C160.598,158.919,160.529,159.012,160.386,159.15z"/>
			<path fill="#70646B" d="M160.634,158.852C160.832,158.495,160.098,158.81,160.634,158.852L160.634,158.852z"/>
			<path fill="#70646B" d="M159.837,160.574l-0.097-0.729c-0.332-0.098-0.653,0.243-0.746-0.039
				C158.91,160.408,159.23,160.516,159.837,160.574z"/>
			<path fill="#70646B" d="M160.379,161.613l-0.006-0.359C160.234,161.215,160.154,161.248,160.379,161.613z"/>
			<path fill="#70646B" d="M160.354,160.503l0.02,0.751c0.228,0.072,0.604,0.336,0.024-0.322
				C160.709,161.219,160.454,160.883,160.354,160.503z"/>
			<path fill="#70646B" d="M160.716,160.35c0.428-0.07,0.815-0.297,0.905,0.441C162.064,159.801,161.141,159.383,160.716,160.35z"/>
			<path fill="#70646B" d="M165.291,159.982l0.57-0.179l-0.222-0.58C165.751,159.514,164.898,159.777,165.291,159.982z"/>
			<path fill="#70646B" d="M157.21,162.666c0.204,0.225,0.725,0.393,1.038,0.615l-0.01-0.527
				C157.953,162.773,157.566,162.939,157.21,162.666z"/>
			<path fill="#70646B" d="M158.248,163.281l0.005,0.799C158.643,163.707,158.521,163.471,158.248,163.281z"/>
			<polygon fill="#70646B" points="161.582,162.643 161.282,161.154 161.483,162.818 			"/>
			<polygon fill="#70646B" points="155.704,164.24 155.439,163.535 155.775,164.668 			"/>
			<path fill="#70646B" d="M154.747,165.326c-0.228-0.588-0.895-0.498-0.959-0.93c-0.201,0.338-0.1,0.932-0.024,1.48
				C153.83,165.467,154.105,165.285,154.747,165.326z"/>
			<path fill="#70646B" d="M153.794,166.688c0.036-0.209,0.018-0.482-0.03-0.811C153.737,166.104,153.716,166.332,153.794,166.688z"
				/>
			<path fill="#70646B" d="M157.479,164.758c-0.164-0.098-0.575-0.361-0.956-0.277l0.776,0.426
				C157.354,164.859,157.414,164.809,157.479,164.758z"/>
			<path fill="#70646B" d="M157.327,164.922l-0.028-0.016c-0.203,0.158-0.339,0.271-0.401,0.316
				C156.954,165.188,157.083,165.094,157.327,164.922z"/>
			<path fill="#70646B" d="M157.524,164.719l-0.046,0.039C157.558,164.797,157.585,164.807,157.524,164.719z"/>
			<path fill="#70646B" d="M159.941,163.426c0.138,0.572,0.015,1.5,1.059,1.391C160.727,164.24,160.134,164.297,159.941,163.426z"/>
			<path fill="#70646B" d="M158.494,165.215l0.563-0.369c-0.175-0.141-0.491-0.268-0.555-0.561L158.494,165.215z"/>
			<polygon fill="#70646B" points="158.48,165.643 158.494,165.215 158.287,165.352 			"/>
			<path fill="#70646B" d="M155.104,166.586c0.047,0.455-0.124,0.721-0.366,0.959c0.408-0.082,0.71-0.311,0.976-0.555
				C155.575,166.758,155.362,166.299,155.104,166.586z"/>
			<path fill="#70646B" d="M156.231,165.834l-0.011,0.076C156.297,165.938,156.333,165.932,156.231,165.834z"/>
			<polygon fill="#70646B" points="152.105,169.576 152.236,169.67 152.161,169.541 			"/>
			<path fill="#70646B" d="M155.865,167.068c0.313-0.074,0.289-0.342,0.222-0.639c-0.09,0.205-0.207,0.395-0.373,0.561
				C155.779,167.098,155.829,167.158,155.865,167.068z"/>
			<path fill="#70646B" d="M153.332,167.545c0.218,0.055,0.438,0.074,0.659,0.078C153.71,167.502,153.23,167.34,153.332,167.545z"/>
			<path fill="#70646B" d="M155.989,165.803c0-0.016-0.003-0.039,0.005-0.055C155.804,165.676,155.875,165.732,155.989,165.803z"/>
			<path fill="#70646B" d="M155.989,165.803c-0.013,0.184,0.054,0.412,0.098,0.627c0.075-0.166,0.124-0.338,0.134-0.52
				C156.153,165.891,156.064,165.846,155.989,165.803z"/>
			<path fill="#70646B" d="M154.24,174.666c-0.386-0.711-0.081-1.662,0.938-1.434c0.198-0.9-1.702-2.699-2.942-3.563
				c0.175,0.289,0.382,0.566,0.085,1.285c0.452,0.275,1.766-0.025,1.73,0.898c-0.485,0.877-0.774,0.178-1.359,0.074
				c0.867,0.613-0.192,1.797,0.735,2.916l0.429-0.863C153.994,174.158,153.932,174.617,154.24,174.666z"/>
			<path fill="#70646B" d="M153.229,168.996l0.146-0.236c-0.315,0.07-0.672-0.049-1.329-0.316c-0.108,0.568-0.011,0.865,0.116,1.098
				l1.067-0.691V168.996z"/>
			<path fill="#70646B" d="M154.288,168.047c0.388,0.785,0.1,1.467,0.99,1.951c0.597-0.539-0.009-0.898,0.126-1.471
				c-0.86,0.93-0.027-0.582-1.045-0.408c0.1-0.262,0.243-0.428,0.379-0.574c-0.24,0.053-0.494,0.08-0.747,0.078l0.057,0.025
				l0.001-0.006l0.008,0.01c0.109,0.055,0.163,0.094,0.076,0.078c0.005,0.012-0.003,0.025-0.006,0.029
				c0.071,0.098,0.115,0.191,0.161,0.283c-0.393,0.078-0.186-0.137-0.161-0.283l-0.07-0.107l-0.009-0.004l-0.674,1.111
				C153.652,168.695,153.896,168.477,154.288,168.047z"/>
			<path fill="#70646B" d="M161.938,166.559c-0.089-0.018-0.132-0.059-0.179-0.096C161.779,166.6,161.811,166.67,161.938,166.559z"
				/>
			<path fill="#70646B" d="M161.184,166.646c-0.023-0.156-0.23-0.445,0.045-0.629c0.371-0.043,0.308,0.27,0.531,0.445
				c-0.046-0.301-0.028-0.916-0.735-0.73l0.026,0.146c-0.575,0.227-1.796,0.021-1.82-0.131
				C159.898,166.152,160.386,166.42,161.184,166.646z"/>
			<path fill="#70646B" d="M157.824,167.711l-0.5,1.061l0.907,0.156l-0.322-0.307C158.48,168.311,158.007,168.01,157.824,167.711z"
				/>
			<polygon fill="#70646B" points="151.772,169.295 151.358,168.475 151.596,169.836 			"/>
			<polygon fill="#70646B" points="150.714,170.072 150.33,169.383 150.297,169.963 			"/>
			<path fill="#70646B" d="M71.619,165.811l-0.419-0.127C71.373,165.77,71.506,165.801,71.619,165.811z"/>
			<path fill="#70646B" d="M73.437,167.816l0.322-0.23C73.515,167.652,73.369,167.729,73.437,167.816z"/>
			<path fill="#70646B" d="M118.428,176.191c-0.388-0.758-0.782-1.947-0.827-1.068l0.054,0.875
				C118.001,175.881,118.235,175.99,118.428,176.191z"/>
			<path fill="#70646B" d="M93.394,175.648c0.011,0.096,0.024,0.197,0.035,0.293c0.223-0.225,0.433-0.438,0.628-0.633
				C93.852,175.414,93.63,175.527,93.394,175.648z"/>
			<path fill="#70646B" d="M91.65,178.787l-0.404-0.795C91.309,178.232,91.43,178.506,91.65,178.787z"/>
			<path fill="#70646B" d="M62.631,153.918l-0.994-0.039C61.952,154.521,62.217,154.051,62.631,153.918z"/>
			<path fill="#70646B" d="M138.262,175.52c-0.456-0.256-0.788-0.34-1.062-0.33C137.755,175.59,138.295,176.242,138.262,175.52z"/>
			<path fill="#70646B" d="M78.998,160.311c-0.244-0.031-0.429,0.029-0.566,0.164C78.676,160.516,78.871,160.483,78.998,160.311z"/>
			<path fill="#70646B" d="M136.111,175.396c0.081,0.074,0.153,0.104,0.237,0.162c0.251-0.195,0.504-0.361,0.852-0.369
				C136.789,174.889,136.375,174.738,136.111,175.396z"/>
			<path fill="#70646B" d="M60.349,102.561c0.048-0.027,0.08-0.066,0.134-0.087C60.37,102.432,60.353,102.48,60.349,102.561z"/>
			<path fill="#70646B" d="M73.822,92.951c-0.018,0.139-0.117,0.317-0.205,0.492C73.714,93.391,73.787,93.252,73.822,92.951z"/>
			<path fill="#70646B" d="M145.912,172.254C146.137,172.08,145.912,172.148,145.912,172.254L145.912,172.254z"/>
			<path fill="#70646B" d="M148.633,174.717c-0.013,0.115-0.006,0.246,0.08,0.43C148.642,174.949,148.623,174.813,148.633,174.717z"
				/>
			<path fill="#70646B" d="M133.934,181.154h-0.029C134.021,181.311,134,181.285,133.934,181.154z"/>
			<path fill="#70646B" d="M146.454,172.424c-0.14-0.047-0.285-0.072-0.428-0.072C146.104,172.387,146.236,172.416,146.454,172.424z
				"/>
			<path fill="#70646B" d="M146.232,172.08c0.103-0.01,0.178-0.021,0.25-0.031C146.456,171.904,146.389,171.838,146.232,172.08z"/>
			<path fill="#70646B" d="M145.589,172.469c0.137-0.082,0.282-0.111,0.438-0.117c-0.072-0.029-0.114-0.064-0.114-0.098
				C145.846,172.303,145.75,172.365,145.589,172.469z"/>
			<path fill="#70646B" d="M59.951,129.867c0.021-0.025,0.039-0.051,0.073-0.078C59.639,129.482,59.707,129.623,59.951,129.867z"/>
			<path fill="#70646B" d="M109.114,184.004c0.018-0.008,0.029-0.029,0.046-0.039l-0.046-0.033V184.004z"/>
			<path fill="#70646B" d="M107.834,184.449c0.688-0.957,0.938-0.797,1.28-0.518l0.012-2.508L107.834,184.449z"/>
			<path fill="#70646B" d="M67.389,160.871l-0.12,1.186c-1.662-0.16-1.777-1.1-2.171,0.24c1.15-0.707,1.711-0.02,2.273,0.668
				c0.592,0.662,1.216,1.301,2.298,0.506l-0.071,0.814c-0.085-0.146-0.227-0.068-0.31-0.215c-0.258,1.711,2.013-0.559,2.666,0.75
				c0.185,0.504,0.141,1.027-0.336,0.99l1.26,0.367c0.185,0.275-0.207,0.539-0.395,0.266c0,0,0.333,0.279,0.665,0.557
				c0.331,0.277,0.673,0.539,0.673,0.539l-0.063,0.047c0.478-0.133,1.331-0.229,1.713-0.252c0.046,0.572-0.354,0.061-0.504,0.377
				l1.125,0.162c-0.195,0.77-1.223,0.74-1.635,0.219c-1.187,2.568,1.026,0.041,1.396,2.502l-0.904-0.355
				c-0.592,1.563,0.339,1.602,0.55,3.004c0.1-0.559-0.061-3.158,1.183-3.006c0.09,0.336,0.329,0.658,1.101,0.584
				c-0.602,0.744-0.029,0.91,0.534,1.295l-0.816,0.971c0.807,0.191,1.157-0.371,1.847-0.576c0.589,0.57,0.15,1.467-0.169,2.256
				c0.973,0.939,0.171-1.811,1.582-1.104c0.6,1.043,1.553,1.023,3.041,1.047c0.41,0.768-0.521,0.594-0.483,1.043l1.097-0.512
				c0.126,0.107-0.078,0.348-0.183,0.469c0.68-0.047,0.689-1.057,1.604-0.916c0.879-1.113,0.572,2.639,2.28,1.758
				c0.069,0.443-0.47,0.627-0.626,1.105c1.793-0.242,1.499-0.109,3.178-0.855l0.576,1.191c-0.281-1.201,1.042-1.781,2.148-2.344
				c-0.054-0.525-0.093-0.963-0.144-1.207l1.426-0.148c0.061,0.248-0.219,0.605-0.62,1.016c0.123-0.063,0.237-0.125,0.335-0.195
				c0.235,0.605-0.251,1.199-0.836,1.727c-0.042-0.287-0.086-0.596-0.126-0.898c-0.6,0.594-1.223,1.26-1.458,1.971
				c0.136-0.102,0.34-0.156,0.541-0.154c-0.163,0.16-0.288,0.311-0.302,0.445c-0.009,0.137,0.232-0.066,0.561-0.281l-0.268,1.418
				l0.288-0.49l1.316,1.488c1.705-0.861,3.419-2.51,5.387-2.465c-0.768,0.855-0.609,1.59-1.002,2.754
				c-0.117-1.398-1.623,0.031-2.529-0.561c0.465,0.307,0.16,0.82-0.039,0.971l2.132-0.518c-0.351,0.949,0.139,0.848,0.487,1.375
				c0.237-2.004,1.704-0.883,2.582-1.268c-0.132,0.658-0.488,1.268-1.326,0.854c0.579,1.719,1.869-1.867,2.48-0.41
				c-0.219-0.033-0.31-0.162-0.48,0.146c0.65-0.457,1.757,0.291,1.335,0.789l-0.222-0.039c1.376,0.617,4.414,0.959,4.908-0.678
				c-0.023,0.219-0.546,1.973-0.695,2.291c0,0,0.879-1.281,1.761-2.564c0.844-1.316,1.687-2.633,1.687-2.633
				c-0.443,1.402-0.098,4.939-1.414,5.582c0.311,0.254,0.7,0.551,1.499,0.146c-0.207-0.238-0.271-2.156,0.06-2.242
				c0.635,1.717,0.476,0.936,1.366,2.445c-0.308-0.352,0.384-2.555,0.916-2.41c-0.129,0.328-0.243,2.23-0.477,2.441l1.646-2.035
				c-0.39,0.352-0.297,1.869-0.063,2.537c-0.093-0.451,1.182,0.199,1.572,0.023l-0.522-0.59c1.514,0.543,1.869-2.898,3.371-2.672
				c-0.225,0.443-0.731,2.789,0.043,3.133c0.485-1.109,2.042-5.357,3.356-6.135l0.215,0.666l1.026-0.723
				c-0.653,1.742-2.661,5.219-3.815,6.535c0.555,0.561,0.106,0.779,1.008,0.791c0.28,0.637-0.555,0.891-0.827,0.906l2.093,0.561
				c-0.019-1.338,1.687-1.303,1.64-2.414c0,0-0.582,0.332-1.162,0.662c-0.59,0.348-1.175,0.625-1.175,0.625
				c0-1.316,1.506-3.689,2.915-3.445c0.356,0.541-0.339,2.367-0.327,2.816c0.209-0.457,1.422-0.848,1.554-0.52l-0.637,0.701
				c0.832,0.516,1.354-1.727,2.346-0.459c0.342,0.072,1.067,1.676,1.112,0.887c-0.615-1.502-0.781-6.213-0.471-7.369
				c0.104,0.098,1.698,1.389,2.12,2.123c0.613,1.168-0.675,2.877-0.159,3.883c0.007-0.363,0.289-0.828,0.406-0.977
				c0.377,0.295-0.085,1.133,0.688,0.938c0.04-1.352,1.581,0.039,0.286-1.156c0.728-0.414,0.82,0.201,1.704,0.059
				c-0.353-0.84,0.493-3.049,1.144-3.51c0,0.346,0.214,0.775,0.321,0.967c1.499-0.012,2.388,0.41,3.785,0.162
				c0.184,0.297,0.944,0.557,0.769,1.184c0.156-0.275,0.249-0.758,0.676-0.875c1.094,0.986-0.937,0.365,0,1.619
				c-0.104-0.789,0.919-1.25,1.401-1.926c-0.471-1.102-1.445,0.107-1.979,0.693c-0.336-1.668,0.378-3.494,1.488-4.654
				c0.949-0.693,0.741,0.92,0.863,0.639c2.12-0.303,0.86-3.209,2.786-2.664c0.992,0.766,0.75,1.99,1.149,2.664
				c-0.748,0.701-1.548-0.117-2.134,0.066c0,0,0.895,0.277,0.889,0.26c-0.16,0.447-0.696,0.85-1.11,0.652
				c0.892,0.838,3.498-1.018,5.419-0.805c0.132-0.463,0.441-1.023,0.043-1.311l-0.408,0.369c-0.768-0.584,0.393-1.52-0.356-1.598
				c0.372-0.857,0.611-2.037,1.662-2.008l0.726,1.004c-0.189-0.305-0.889-0.373-0.964,0.076c0.093-0.65,2.095,0.82,1.723-0.793
				c0.009,0.02-0.99-0.443-0.992-0.443c0.344-0.799,0.319-2.402,1.192-2.467c-0.924-0.838-0.091,0.221-1.274-0.701
				c0.647,0.629,0.216,0.877-0.184,1.117c-0.395,0.236-0.804,0.398-0.008,1.047c-1.291-1.189-1.236-0.17-2.509-1.096
				c0.195,0.35,0.57,0.574-0.104,0.682c0.025,0.121,0.027,0.287,0.023,0.385c-0.024,0-0.03-0.002-0.052-0.01l0.052,0.029
				c0,0.068,0.002,0.08,0.019,0.01c0.212,0.09,0.419,0.225,0.565,0.404c0.091,0.963-0.882,1.465-1.058,2.01
				c-0.458-0.035-0.019-0.486-0.396-0.803l-0.246,0.85c-0.39-0.805-1.532-1.006-0.857-1.814l-0.792,0.25
				c-0.631-0.297-1.303-0.254-1.566,0.248c-0.414-0.033-0.658,1.217-0.531,0.469l-1.115,0.879l-0.071-0.211
				c-0.642,0.121-1.194,0.658-1.83,1.025c-0.65,0.311-1.394,0.441-2.278-0.211c-0.396,0.305-0.805,0.662-1.572,0.553l-0.258-0.738
				c-0.534,0.328-1.787-0.58-1.938,0.244c-0.422-0.998-1.097-1.037-1.809-0.854c-0.714,0.164-1.49,0.482-1.996,0.326l0.008,1.008
				c-0.699-0.027-1.357,0.285-2.228,0.729l0.063,0.891c-0.77,0.727-1.98-0.678-3.18-0.609c0.093-0.336,0.396-0.242,0.606-0.031
				c-1.345-2.006-3.131,1.338-4.37-0.24c-0.352,0.297-0.584,0.168-0.792-0.074c0.029,0,0.059-0.014,0.086-0.039
				c-0.035-0.014-0.083-0.02-0.137-0.021c-0.129-0.164-0.258-0.354-0.406-0.51c0.114,0.227,0.229,0.414,0.339,0.506
				c-0.259,0-0.65,0.078-1.054,0.27l-0.058-0.969c-0.032,0.008-0.056,0.004-0.09,0.018c-0.336-0.402-0.354,0.41-0.228,1.15
				c-0.211,0.131-0.409,0.295-0.574,0.506c-0.132-1.574-1.073,0.381-1.297-1.311c-0.355,0.766-2.005,0.348-2.439,1.988
				c0.018-0.217-0.083-0.336,0.129-0.32c-0.409-0.25-0.809-0.5-1.262-0.084l-0.009-1.227l-1.178,1.486
				c-0.462-0.809-0.625-1.268,0.081-2.117c-1.589,1.238-1.174,0.381-2.559,1.578l0.195-0.762c-0.404-0.047-1.257,0.863-1.379,0.18
				c-0.594-1.596-4.42-1.199-6.25-3.225c-0.268,2.352-0.708-1.309-1.343,0.354c0.044-0.566-0.159-0.963,0.347-1.291
				c-1.287,0.113-1.361-1.365-2.639-0.252c0.07-0.563,0.516-0.658,0.523-1.006c-0.129,0.078-0.511,0.307-0.507-0.045
				c0.011-0.346,0.324-0.365,0.575-0.516c-1.106-0.355-1.856,1.162-2.543,2.594c-0.293-0.93-0.609-0.938-1.448-0.162
				c0.012-0.57-0.092-1.203,0.672-1.07c-0.37-0.24-2.013-1.785-2.613-0.66c0.021-0.346-0.5-0.334-0.666-0.258
				c-0.81-0.527-0.83-0.662-1.713-1.01l0.129,0.309c-1.065,1.16-0.871-0.074-1.619-0.291l0.096-0.127
				c-0.912-1.865-0.929,0.047-1.714-1.928l-0.441,0.848c-1.284,1.646-0.61-1.861-1.846-1.787l-0.023,0.652
				c-0.867,0.225,0.38-3.109,0.176-3.645c0.024-0.211,0.315-0.113,0.517-0.117c-0.297-1.805-0.899,0.877-1.877,0.453
				c0.278-0.645,1.258-1.184,0.815-1.705c0.045-0.313-0.678-0.195-1.416-0.213c-0.707-0.041-1.433-0.227-1.333-1.014
				c-0.207,0.514-0.399,1.043-1.023,0.996c-0.714-0.375-0.037-2.758-1.652-2.119c0.039-0.166,0.117-0.283,0.204-0.375
				c-0.692-0.117-1.767-0.854-2.641-0.576c1.092-1.27,0.253-1.674-0.607-2.044c-0.858-0.368-1.635-0.759-0.402-1.618l-1.114-1.32
				l0.286-0.133c-0.415-1.027-1.204-0.998-2.042-0.967c0.044-0.332,0.387-0.307,0.534-0.371c-0.314-1.705-0.432-1.746-2.396-2.319
				l0.823-0.558c-0.338-0.042-0.248-0.738-0.282-1.516c-0.02-0.793-0.061-1.713-0.892-2.242c0.109-0.024,0.303-0.061,0.475,0.008
				c-1.81-1.297,1.326-4.811-2.332-4.457c0,0-0.297-0.236-0.595-0.469c-0.309-0.231-0.577-0.482-0.577-0.482
				c0.124,1.608-1.582,0.148-1.991,0.929c-0.355-0.585,0.7-1.869,1.041-1.146l-0.148,0.16c1.877-0.157,0.229-2.093,1.481-2.314
				c-0.736-3.012-0.083-6.15-0.214-9.002l-1.418,0.447l-0.007-1.024c0.317-0.29,1.104-0.427,1.108,0.29
				c0.79-0.426-0.799-1.152-1.099-1.164c0.548-1.445,1.706,0.463,1.728,0.023l-0.125-0.574l-0.163,0.139
				c-0.61-0.443-1.238-0.461-1.19-1.338c0.278-0.559,0.887-0.308,0.937-0.521c0.104-0.002,0.15-0.076,0.034-0.332l0.088-1.268
				l-1.131,0.522c-0.58-0.565,0.024-1.211-1.257-0.609c2.008-0.877,0.818-4.801,1.505-5.313c-0.767-0.845-0.682-1.642-0.497-2.609
				c-0.261,0.219-1.56,0.248-1.326-0.595c2.602,0.582,1.284-1.436,3.314-1.85c-1.345,0.429,0.03-2.379-1.891-1.713
				c0.316-0.666,0.991,0.108,1.687-0.315c-0.805-1.831,1.35-3.435,1.417-5.464c-0.329-0.113-0.94,0.088-1.328-0.459l1.979-0.59
				c-0.061-0.419-1.842-0.891-0.48-1.265c-0.309,0.016-0.777,0.046-0.812-0.245c0.66-0.856,1.07-1.772,1.435-2.706
				c0.356-0.933,0.529-1.955,0.863-2.908c0.346-0.941,0.736-1.878,1.319-2.708c0.597-0.816,1.498-1.441,2.639-1.852
				c-0.838,0.094-0.727-0.235-0.551-0.594c-0.266,0.14-0.731-0.457-1.16-0.662c0,0,0.485-0.182,0.97-0.368
				c0.501-0.156,1.014-0.279,1.014-0.279c-0.902-0.985,0.936-1.418,0.039-2.326l-0.127,0.561c-0.743-1.493-3.231-1.17-4.74-2.327
				c0.427,0.856-0.45,0.95-1.264,1.23c-0.78,0.283-1.55,0.73-0.877,1.975c-0.502,0.091-0.39-0.547-0.862-0.616
				c0.516,0.739,0.446,1.203-0.298,1.763l-0.131-0.177c-0.475,1.089-0.909,1.798-1.514,2.498c-0.575,0.704-1.326,1.401-1.996,2.57
				l0.946,0.153c-0.312,0.484-0.626,0.495-0.938,0.665c1.114,1.105,0.616-1.469,1.883-0.349c-2.027,0.031-1.408,3.672-3.542,3.524
				c-0.249,0.838,1.111,0.069,0.862,0.9l-0.626,0.056l0.67,0.421c-0.273,0.508-1.06,0.592-1.547,0.481
				c0.095-0.12-0.027-0.42-0.029-0.576c-0.871,0.541-0.339,2.099-0.624,2.287l0.578-0.726c-0.09,1.215-0.336,2.494-0.6,3.777
				c-0.269,1.278-0.381,2.576,0.068,3.786l0.462-0.101c0.573,1.81-0.687,1.29-0.565,3.209l-0.097-0.078
				c0.405,0.424,0.585,0.943,0.492,1.447c-0.478-0.526-1.084,0.797-1.605,0.122c0.719,1.94,0.611,0.989,2.154,2.322l-0.758,0.229
				c0.633,0.456,0.958,0.51,1.126,1.44c-0.604-0.792-1.136,0.542-1.944-0.36c-1.667,1.93,1.54,2.963-0.838,3.831
				c2.013,0.916,1.179-1.688,1.599-1.177c0.679-0.399,1.503,0.766,1.282,1.363c-0.071,0.607-2.591,1.052-2.518,2.659
				c0.005-0.158-0.148-0.166-0.144-0.324c-0.502,0.613,0.736,1.146-0.088,1.91c1.243,0.352-0.045,0.955,1.534,0.984l-0.41-1.428
				c0.429,0.816,2.288,1.457,1.528,2.837c-0.327-0.078-0.775-0.444-1.028-0.702c-0.432,0.424,0.371,0.73-0.071,1.174
				c-1.562,0.006-0.532-1.727-1.726-2.553c-0.67,0.473,1.24,1.617-0.497,1.276c2.215,0.495-0.139,1.608,1.604,2.549l-0.943,0.018
				c0.161,0.161,0.633,0.468,0.639,0.787l-1.267-0.451c1.105,0.772-0.76,1.811-0.054,2.601c-0.288-1.779,1.067-0.541,1.647-1.365
				c1.56,1.984-2.266,1.555-1.455,3.967c-0.183-0.313,0.373-1.335,0.883-0.882c-0.125,0.492-0.388,1.165-0.832,1.54
				c0.463,1.594,0.904-0.418,1.589,0.171c-1.019,0.751,0.628,0.706,1.13,1.318l-0.936,0.194c-0.212,1.949,2.054,0.063,1.676,1.836
				l-1.445-0.391l0.52,0.775l-1.102,0.072c0.979,0.756,0.853,1.082,0.828,2.074c0.592-0.387,1.713-0.334,1.97,0.436
				c-0.393,0.695-0.965-0.048-0.507,1.033c-0.646-0.074-1.453-0.155-0.746-0.891c-0.317,0.033-0.653-0.091-0.965-0.061
				c-0.458,0.774,0.292,1.544,0.419,1.953c-0.012-0.17-0.02-0.377,0.083-0.514c0,0,0.438,0.314,0.877,0.629
				c0.429,0.313,0.882,0.609,0.882,0.609c-0.244,0.37-0.595,0.261-0.936,0.146c0.219,0.303,0.721,0.386,0.979,0.839
				c-0.78,0.136-1.525,0.438-2.135-0.151l1.406,1.294c-0.281,0.222-0.558,1.143-0.909,1.04c-0.093,1.083,2.213,1.587,2.245,2.942
				c0.166-0.008,0.353,0.051,0.567,0.24c0.356,1.109-0.051,2.559,1.604,3.202l-0.805,1.392c0.824,0.771,0.978-1.809,2.33-0.546
				c1.011,0.837-0.771,1.033-0.87,1.63c0.967,0.164,2.753,0.229,2.488,1.844C67.686,161.479,67.681,161.107,67.389,160.871z
				 M76.675,170.207c-0.33,0-1.126,0.131-0.883-0.424C76.726,169.158,76.541,169.695,76.675,170.207z M94.359,178.025
				c-0.282,0.23-0.482-0.021-0.633-0.475C93.964,177.561,94.186,177.693,94.359,178.025z M143.337,174.115
				c-0.002,0.018-0.007,0.031-0.007,0.051C142.77,173.98,142.974,174.059,143.337,174.115z M144.388,174.164
				c0.043-0.16-0.012-0.279-0.098-0.391c0.024,0.248-0.175,0.342-0.429,0.365C144.013,174.35,144.19,174.467,144.388,174.164z
				 M66.252,126.209l-0.243,0.205C65.722,125.969,65.972,126.09,66.252,126.209z"/>
			<path fill="#70646B" d="M91.858,178.428c0-0.178,0.054-0.346,0.113-0.516C91.818,178.021,91.742,178.189,91.858,178.428z"/>
			<path fill="#70646B" d="M62.812,153.924c0.002-0.018-0.007-0.029-0.007-0.041c-0.061,0.002-0.12,0.016-0.173,0.035
				L62.812,153.924z"/>
			<path fill="#70646B" d="M129.858,185.311c-0.243-0.129-0.38-0.301-0.475-0.477C129.382,185.068,129.498,185.262,129.858,185.311z
				"/>
			<path fill="#70646B" d="M148.284,170.621l-0.42,0.477c0.239-0.17,0.432-0.025,0.637,0.043
				C148.381,170.949,148.126,170.713,148.284,170.621z"/>
			<path fill="#70646B" d="M156.13,172.527c0.013-0.156,0.162-0.141,0.168-0.295l-0.291-0.336
				C155.687,172.176,155.668,172.648,156.13,172.527z"/>
			<path fill="#70646B" d="M150.326,173.109c0.441,0.674,0.657,0.217,0.966-0.152c-0.023,0.018-0.038,0.037-0.069,0.045
				C150.755,171.963,150.548,172.533,150.326,173.109z"/>
			<path fill="#70646B" d="M151.367,172.883c0.1-0.109,0.209-0.203,0.346-0.242C151.521,172.229,151.522,172.648,151.367,172.883z"
				/>
			<path fill="#70646B" d="M145.34,173.24c0.275,0.119-0.282-0.992-0.046-0.73C145.111,171.484,144.502,174.125,145.34,173.24z"/>
			<polygon fill="#70646B" points="151.968,175.213 151.325,174.441 151.499,175.277 			"/>
			<path fill="#70646B" d="M148.278,176.305l0.801-0.09c-0.081-0.145-0.037-0.273,0.033-0.395
				C148.681,175.996,148.141,176.041,148.278,176.305z"/>
			<path fill="#70646B" d="M149.112,175.82c0.229-0.086,0.429-0.207,0.476-0.414C149.476,175.475,149.237,175.627,149.112,175.82z"
				/>
			<polygon fill="#70646B" points="151.208,176.016 150.901,175.934 150.38,176.109 			"/>
			<path fill="#70646B" d="M140.559,178.838l-0.73,0.5c-0.002,0.354,0.266,0.494,0.536,0.279
				C140.501,179.336,140.764,179.123,140.559,178.838z"/>
			<path fill="#70646B" d="M143.786,180.773c-0.294-0.139-0.371-0.342-0.595-0.619l0.336,1.184L143.786,180.773z"/>
			<path fill="#70646B" d="M141.402,181.732c0.008,0.352-1.002,1.293,0.071,0.918C141.478,182.299,142.256,181.787,141.402,181.732z
				"/>
			<polygon fill="#70646B" points="128.365,181.986 128.577,181.961 128.467,179.939 			"/>
			<path fill="#70646B" d="M116.612,186.387c1.004,0.576,0.375-1.217,1.262-0.539c0.291-0.459-0.726-0.553-0.432-0.945
				C116.761,185.361,116.468,185.027,116.612,186.387z"/>
			<path fill="#70646B" d="M117.443,184.902c0.105-0.07,0.222-0.158,0.348-0.279C117.599,184.734,117.505,184.822,117.443,184.902z"
				/>
			<polygon fill="#70646B" points="75.903,91.908 76.556,91.726 75.81,91.596 			"/>
			<path fill="#70646B" d="M75.347,90.121l1.083,0.704l-0.705-1.014C75.693,89.952,75.635,90.225,75.347,90.121z"/>
			<path fill="#70646B" d="M76.565,173.463l0.234-0.205c0.122-0.336,0.005-0.463-0.224-0.717L76.565,173.463z"/>
			<polygon fill="#70646B" points="70.064,165.988 70.159,166.127 70.824,165.133 			"/>
			<path fill="#70646B" d="M63.896,160.128c0.134,0.327,0.558,0.534,0.721,0.843C64.001,160.459,65.098,159.273,63.896,160.128z"/>
		</g>
	</g>
	<g id="menu_icon" display="inline">
		<path fill="#FFFFFF" d="M148.875,108.13h-47.743c-2.355,0-4.263-1.908-4.263-4.256c0-2.352,1.908-4.259,4.263-4.259h47.743
			c2.356,0,4.256,1.908,4.256,4.259C153.131,106.222,151.231,108.13,148.875,108.13z"/>
		<path fill="#FFFFFF" d="M148.875,128.716h-47.743c-2.355,0-4.263-1.909-4.263-4.26c0-2.352,1.908-4.254,4.263-4.254h47.743
			c2.356,0,4.256,1.902,4.256,4.254C153.131,126.807,151.231,128.716,148.875,128.716z"/>
		<path fill="#FFFFFF" d="M148.875,150.385h-47.743c-2.355,0-4.263-1.91-4.263-4.254c0-2.358,1.908-4.262,4.263-4.262h47.743
			c2.356,0,4.256,1.903,4.256,4.262C153.131,148.475,151.231,150.385,148.875,150.385z"/>
	</g>
</g>
<g id="menu_icon_2_">
	<g id="menu_icon_1_">
		<path fill="#555555" d="M210.561,64.544H39.467c-8.441,0-15.279-6.838-15.279-15.252c0-8.427,6.838-15.264,15.279-15.264h171.094
			c8.445,0,15.252,6.836,15.252,15.264C225.813,57.707,219.006,64.544,210.561,64.544z"/>
		<path fill="#555555" d="M210.561,138.316H39.467c-8.441,0-15.279-6.842-15.279-15.27c0-8.427,6.838-15.242,15.279-15.242h171.094
			c8.445,0,15.252,6.815,15.252,15.242C225.813,131.475,219.006,138.316,210.561,138.316z"/>
		<path fill="#555555" d="M210.561,215.971H39.467c-8.441,0-15.279-6.846-15.279-15.244c0-8.451,6.838-15.271,15.279-15.271h171.094
			c8.445,0,15.252,6.82,15.252,15.271C225.813,209.125,219.006,215.971,210.561,215.971z"/>
	</g>
</g>
</svg>
