<?xml version="1.0" encoding="utf-8"?>
<!-- Generator: Adobe Illustrator 16.0.0, SVG Export Plug-In . SVG Version: 6.00 Build 0)  -->
<!DOCTYPE svg PUBLIC "-//W3C//DTD SVG 1.1//EN" "http://www.w3.org/Graphics/SVG/1.1/DTD/svg11.dtd">
<svg version="1.1" xmlns="http://www.w3.org/2000/svg" xmlns:xlink="http://www.w3.org/1999/xlink" x="0px" y="0px" width="250px"
	 height="250px" viewBox="0 0 250 250" enable-background="new 0 0 250 250" xml:space="preserve">
<g id="circle" display="none">
	<circle display="inline" fill="#355677" cx="125" cy="125" r="125"/>
</g>
<g id="home" display="none">
	<g id="icon" display="inline">
		<g id="chimney">
			<rect x="155.444" y="62.413" fill="#AA6B7D" width="31.795" height="46.733"/>
		</g>
		<g id="base">
			<g>
				<polygon fill="#D1A3B6" points="185.323,189.623 64.606,189.623 64.606,103.529 124.105,59.632 185.323,103.529 				"/>
			</g>
		</g>
		<g id="lining">
			<path fill="#AA6B7D" d="M192.793,120.804l-0.009-10.902c0,0-2.176-1.384-11.877-7.558v-0.276h-0.435
				c-20.721-13.187-52.754-33.572-53.034-33.75c-1.505-0.959-3.434-0.962-4.941-0.003l-53.041,33.753h-0.434v0.276l-11.957,7.609
				l0.07,10.852l14.997-9.544h105.664L192.793,120.804z M124.965,99.602c-4.84,0-8.763-3.923-8.763-8.763s3.923-8.762,8.763-8.762
				c4.839,0,8.763,3.922,8.763,8.762S129.804,99.602,124.965,99.602z M111.145,86.435c-0.444,1.39-0.688,2.868-0.688,4.404
				c0,4.522,2.081,8.564,5.333,11.228H86.58L111.145,86.435z M134.141,102.067c3.252-2.664,5.332-6.706,5.332-11.228
				c0-1.536-0.243-3.014-0.688-4.404l24.564,15.632H134.141z"/>
		</g>
		<g id="roof">
			<g>
				<path fill="#C6839A" d="M195.9,97.269l-0.52-0.331l-66.753-42.513c-0.048-0.031-0.1-0.055-0.149-0.084
					c-0.112-0.067-0.224-0.132-0.339-0.193c-0.098-0.051-0.195-0.099-0.294-0.145c-0.099-0.046-0.197-0.089-0.297-0.13
					c-0.118-0.049-0.237-0.093-0.356-0.136c-0.085-0.029-0.169-0.056-0.254-0.082c-0.134-0.041-0.267-0.078-0.401-0.11
					c-0.078-0.019-0.157-0.036-0.235-0.052c-0.139-0.028-0.276-0.053-0.416-0.072c-0.084-0.012-0.168-0.021-0.254-0.029
					c-0.13-0.014-0.26-0.025-0.39-0.031c-0.092-0.003-0.184-0.005-0.277-0.005c-0.093,0-0.185,0.001-0.277,0.005
					c-0.13,0.006-0.26,0.017-0.391,0.031c-0.085,0.008-0.169,0.018-0.253,0.029c-0.139,0.019-0.276,0.044-0.415,0.072
					c-0.079,0.016-0.158,0.033-0.236,0.052c-0.135,0.032-0.269,0.069-0.402,0.11c-0.084,0.026-0.168,0.053-0.253,0.082
					c-0.12,0.042-0.239,0.087-0.357,0.136c-0.1,0.041-0.198,0.084-0.296,0.13c-0.099,0.046-0.197,0.094-0.293,0.145
					c-0.115,0.061-0.229,0.125-0.34,0.193c-0.049,0.029-0.1,0.053-0.149,0.084L54.549,96.938c-0.017,0.01-0.206,0.125-0.52,0.331
					c-2.817,1.844-15.801,11.156-7.349,20.935c0.254-0.12,0.507-0.249,0.75-0.404l77.534-49.364l77.534,49.364
					c0.243,0.155,0.496,0.283,0.75,0.404C211.701,108.425,198.718,99.112,195.9,97.269z"/>
			</g>
		</g>
		<g id="door">
			<g display="none">
				<g display="inline">
					<path fill="#AA6B7D" d="M101.541,196.409v-34.713c0-12.916,10.508-23.425,23.424-23.425c12.917,0,23.425,10.509,23.425,23.425
						v34.713H101.541z"/>
					<path fill="#C6839A" d="M124.964,141.771c11.004,0,19.925,8.92,19.925,19.925v31.213h-39.849v-31.213
						C105.041,150.691,113.96,141.771,124.964,141.771 M124.964,134.771c-14.846,0-26.924,12.078-26.924,26.925v31.213v7h7h39.849h7
						v-7v-31.213C151.89,146.85,139.811,134.771,124.964,134.771L124.964,134.771z"/>
				</g>
			</g>
			<g>
				<path fill="#AA6B7D" d="M144.89,158.41c0-11.005-8.921-19.925-19.925-19.925c-11.004,0-19.924,8.92-19.924,19.925v31.213h39.849
					V158.41z"/>
				<path fill="#C6839A" d="M124.964,130.44c-15.422,0-27.968,12.547-27.968,27.97v31.213h8.044V158.41
					c0-11.005,8.92-19.925,19.924-19.925c11.004,0,19.925,8.92,19.925,19.925v31.213h8.045V158.41
					C152.935,142.987,140.387,130.44,124.964,130.44z"/>
			</g>
		</g>
		<g id="windows">
		</g>
	</g>
	<g id="lines" display="inline">
	</g>
</g>
<g id="works">
	<g id="icon_1_">
		<g id="contents">
			<rect x="83.004" y="77.109" fill="#AA6B7D" width="83.992" height="95.781"/>
			<g id="flower_1_">
				<g id="stem">
					<rect x="122.5" y="122.833" fill="#C6839A" width="5" height="30.5"/>
					<path fill="#C6839A" d="M131.161,140.488c-7.74,5.195-7.144,11.928-7.144,11.928s6.003,3.1,13.744-2.098
						c7.741-5.197,9.971-13.824,9.971-13.824S138.902,135.291,131.161,140.488z"/>
					<path fill="#C6839A" d="M118.837,140.488c7.741,5.195,7.145,11.928,7.145,11.928s-6.004,3.1-13.744-2.098
						c-7.741-5.197-9.971-13.824-9.971-13.824S111.096,135.291,118.837,140.488z"/>
				</g>
				<path id="blossom" fill="#D1A3B6" d="M140.739,99.958l-7.869,7.375L125,96.667l0,0l-7.87,10.666l-7.87-7.375
					c0,0-7.036,20.387,4.708,25.406c4.978,2.128,11.031,1.865,11.031,1.865s6.053,0.264,11.03-1.864
					C147.775,120.346,140.739,99.958,140.739,99.958z"/>
			</g>
		</g>
		<g id="frame">
			<polygon fill="none" points="166.996,84.477 166.996,77.109 159.629,77.109 90.372,77.109 83.004,77.109 83.004,84.477 
				83.004,165.522 83.004,172.891 90.372,172.891 159.629,172.891 166.996,172.891 166.996,165.522 			"/>
			<path fill="#C6839A" d="M166.996,84.477v81.045v7.368l13.041,13.041c1.228-1.66,1.963-3.708,1.963-5.932V70
				c0-2.224-0.734-4.271-1.963-5.932l-13.041,13.041V84.477z"/>
			<path fill="#D1A3B6" d="M90.372,77.109h69.257h7.367l13.041-13.041C178.216,61.604,175.299,60,172,60H78
				c-3.299,0-6.216,1.604-8.037,4.068l13.041,13.041H90.372z"/>
			<path fill="#D1A3B6" d="M166.996,172.891h-7.367H90.372h-7.368l-13.041,13.041C71.784,188.396,74.701,190,78,190h94
				c3.299,0,6.216-1.604,8.037-4.068L166.996,172.891z"/>
			<path fill="#C6839A" d="M83.004,165.522V84.477v-7.368L69.963,64.068C68.735,65.729,68,67.776,68,70v110
				c0,2.224,0.735,4.271,1.963,5.932l13.041-13.041V165.522z"/>
		</g>
	</g>
</g>
<g id="me" display="none">
	<circle id="base_2_" display="inline" fill="#D1A3B6" cx="125" cy="124.565" r="68.667"/>
	<g id="mouth">
		<path display="inline" fill="#AA6B7D" d="M125,164.491c-7.816,0-14.175-6.358-14.175-14.175c0-1.83,1.483-3.313,3.313-3.313
			s3.314,1.483,3.314,3.313c0,4.161,3.386,7.548,7.547,7.548c4.161,0,7.548-3.387,7.548-7.548c0-1.83,1.482-3.313,3.313-3.313
			c1.83,0,3.313,1.483,3.313,3.313C139.175,158.133,132.816,164.491,125,164.491z"/>
	</g>
	<g id="blush" display="inline">
		<circle fill="#C6839A" cx="82.843" cy="153.098" r="17.673"/>
		<circle fill="#C6839A" cx="167.158" cy="153.098" r="17.673"/>
	</g>
	<g id="eyes" display="inline">
		<path fill="#AA6B7D" d="M100.477,124.363c-1.891,0-3.423,1.532-3.423,3.423c0,3.271-2.661,5.932-5.932,5.932
			c-3.271,0-5.932-2.66-5.932-5.932c0-1.891-1.532-3.423-3.422-3.423s-3.422,1.532-3.422,3.423c0,1.002,0.127,1.973,0.347,2.91
			l-3.157,3.155c-1.336,1.338-1.336,3.505,0,4.841c0.669,0.669,1.544,1.003,2.42,1.003c0.876,0,1.752-0.334,2.42-1.002l1.801-1.8
			c2.307,2.268,5.464,3.67,8.945,3.67c7.045,0,12.777-5.731,12.777-12.777C103.899,125.896,102.367,124.363,100.477,124.363z"/>
		<path fill="#AA6B7D" d="M172.043,124.363c-1.891,0-3.423,1.532-3.423,3.423c0,3.271-2.659,5.932-5.932,5.932
			c-3.271,0-5.933-2.66-5.933-5.932c0-1.891-1.531-3.423-3.422-3.423s-3.423,1.532-3.423,3.423c0,1.002,0.128,1.973,0.349,2.91
			l-3.158,3.155c-1.336,1.338-1.336,3.505-0.001,4.841c0.669,0.669,1.546,1.003,2.422,1.003c0.875,0,1.751-0.334,2.42-1.002
			l1.801-1.799c2.307,2.267,5.464,3.669,8.945,3.669c7.045,0,12.777-5.731,12.777-12.777
			C175.466,125.896,173.934,124.363,172.043,124.363z"/>
	</g>
	<g id="flower" display="inline">
		<path fill="#C6839A" d="M177.041,76.848c0,5.82-3.223,10.538-7.197,10.538s-7.197-4.718-7.197-10.538s4.718-13.265,7.197-13.265
			C172.447,63.583,177.041,71.028,177.041,76.848z"/>
		<path fill="#C6839A" d="M162.646,106.706c0-5.819,3.223-10.537,7.197-10.537s7.197,4.718,7.197,10.538s-4.718,13.264-7.197,13.265
			C167.24,119.971,162.646,112.526,162.646,106.706z"/>
		<path fill="#C6839A" d="M184.773,98.976c-5.819,0-10.537-3.223-10.537-7.198s4.718-7.198,10.537-7.198s13.265,4.719,13.265,7.198
			C198.038,94.38,190.593,98.976,184.773,98.976z"/>
		<path fill="#C6839A" d="M154.915,84.579c5.82,0,10.536,3.223,10.536,7.198s-4.718,7.198-10.537,7.198s-13.264-4.719-13.265-7.198
			C141.65,89.174,149.095,84.579,154.915,84.579z"/>
		<path fill="#C6839A" d="M164.376,76.131c4.116,4.116,5.172,9.73,2.362,12.541c-2.812,2.811-8.426,1.754-12.54-2.361
			c-4.116-4.115-6.044-12.716-4.291-14.469C151.748,70,160.261,72.016,164.376,76.131z"/>
		<path fill="#C6839A" d="M175.311,107.424c-4.115-4.116-5.171-9.73-2.361-12.541c2.812-2.811,8.426-1.754,12.54,2.361
			c4.116,4.115,6.044,12.715,4.291,14.469C187.938,113.554,179.425,111.539,175.311,107.424z"/>
		<path fill="#C6839A" d="M185.489,86.31c-4.114,4.115-9.729,5.172-12.54,2.361c-2.81-2.811-1.754-8.426,2.362-12.541
			c4.115-4.116,12.716-6.043,14.469-4.29C191.62,73.682,189.605,82.195,185.489,86.31z"/>
		<path fill="#C6839A" d="M154.198,97.244c4.114-4.115,9.729-5.171,12.54-2.36c2.81,2.811,1.754,8.425-2.362,12.541
			c-4.115,4.115-12.716,6.042-14.469,4.289C148.067,109.872,150.082,101.359,154.198,97.244z"/>
		<circle fill="#AA6B7D" cx="169.844" cy="91.777" r="6.523"/>
	</g>
</g>
<g id="contact" display="none">
	<g id="base_1_" display="inline">
		<path fill="#D1A3B6" d="M188.146,92.399L127.028,128c-0.612,0.416-1.321,0.623-2.029,0.623s-1.416-0.207-2.029-0.623
			L61.853,92.399c-0.386-0.261-0.698-0.588-0.947-0.95v76.884h128.189V91.449C188.846,91.812,188.532,92.138,188.146,92.399z"/>
		<path fill="#C6839A" d="M61.853,157.602L122.971,122c0.613-0.415,1.32-0.622,2.029-0.622c0.707,0,1.416,0.207,2.028,0.622
			l61.118,35.602c0.386,0.26,0.699,0.588,0.948,0.949v9.783H60.906v-9.783C61.155,158.189,61.467,157.861,61.853,157.602z"/>
		<path fill="#C6839A" d="M61.853,92.399L122.971,128c0.613,0.416,1.321,0.623,2.029,0.623s1.417-0.207,2.029-0.623l61.118-35.601
			c0.386-0.261,0.699-0.588,0.948-0.95v-9.783H60.906v9.783C61.155,91.812,61.467,92.138,61.853,92.399z"/>
	</g>
	<g id="heart" display="inline">
		<path fill="#AA6B7D" d="M132.539,114.623c-4.164,0-7.539,3.376-7.539,7.539c0-4.163-3.375-7.539-7.539-7.539
			c-4.163,0-7.539,3.376-7.539,7.539c0,0-0.002,0.16,0.023,0.452c0.03,0.499,0.107,0.984,0.229,1.452
			c0.73,3.323,3.592,10.274,14.826,14.924c11.233-4.65,14.096-11.602,14.825-14.924c0.123-0.468,0.2-0.953,0.229-1.452
			c0.024-0.292,0.023-0.452,0.023-0.452C140.078,117.999,136.702,114.623,132.539,114.623z"/>
	</g>
</g>
</svg>
