<?xml version="1.0" encoding="utf-8"?>
<!-- Generator: Adobe Illustrator 16.0.0, SVG Export Plug-In . SVG Version: 6.00 Build 0)  -->
<!DOCTYPE svg PUBLIC "-//W3C//DTD SVG 1.1//EN" "http://www.w3.org/Graphics/SVG/1.1/DTD/svg11.dtd">
<svg version="1.1" xmlns="http://www.w3.org/2000/svg" xmlns:xlink="http://www.w3.org/1999/xlink" x="0px" y="0px" width="200px"
	 height="200px" viewBox="0 0 200 200" enable-background="new 0 0 200 200" xml:space="preserve">
<g id="Layer_1">
	<g id="Layer_3">
		<path fill="#89DAF5" d="M100,200C44.86,200,0,155.141,0,100C0,44.86,44.86,0,100,0c55.143,0,100,44.86,100,100
			C200,155.141,155.143,200,100,200z"/>
	</g>
</g>
<g id="Layer_3_1_">
	<path fill="#0E76B7" d="M80.662,149.555c0,2.314-1.873,4.188-4.186,4.188h-46.89c-2.311,0-4.185-1.873-4.185-4.188L25.4,44.055
		c0.001-2.313,1.875-4.186,4.186-4.187h46.89c2.313,0,4.187,1.874,4.187,4.186L80.662,149.555z"/>
	<path fill="none" stroke="#FFFFFF" stroke-width="2" stroke-miterlimit="10" d="M58.543,142.391
		c0.001,3.043-2.467,5.512-5.512,5.512c-3.044,0-5.514-2.469-5.513-5.512c0-3.047,2.469-5.516,5.513-5.516
		C56.076,136.875,58.544,139.344,58.543,142.391z"/>
	
		<line fill="#DFE9F4" stroke="#FFFFFF" stroke-width="2" stroke-linecap="round" stroke-miterlimit="10" x1="47.832" y1="45.729" x2="58.229" y2="45.729"/>
	<rect x="29.323" y="57.121" fill="#FFFFFF" width="47.418" height="73.215"/>
	<g>
		<polygon fill="#0E76B7" stroke="#0E76B7" stroke-width="2" stroke-linejoin="round" stroke-miterlimit="10" points="
			53.031,84.285 56.143,90.591 63.103,91.603 58.066,96.513 59.256,103.441 53.031,100.17 46.805,103.441 47.995,96.513 
			42.958,91.603 49.918,90.591 		"/>
		
			<line fill="none" stroke="#0E76B7" stroke-width="2" stroke-linecap="round" stroke-linejoin="round" stroke-miterlimit="10" x1="53.031" y1="79.143" x2="53.031" y2="73.397"/>
		
			<line fill="none" stroke="#0E76B7" stroke-width="2" stroke-linecap="round" stroke-linejoin="round" stroke-miterlimit="10" x1="53.031" y1="114.061" x2="53.031" y2="108.314"/>
		<path fill="none" stroke="#0E76B7" stroke-width="2" stroke-linecap="round" stroke-linejoin="round" stroke-miterlimit="10" d="
			M31.462,93.864"/>
		<path fill="none" stroke="#0E76B7" stroke-width="2" stroke-linecap="round" stroke-linejoin="round" stroke-miterlimit="10" d="
			M37.208,93.864"/>
		<path fill="none" stroke="#0E76B7" stroke-width="2" stroke-linecap="round" stroke-linejoin="round" stroke-miterlimit="10" d="
			M68.854,93.864"/>
		<path fill="none" stroke="#0E76B7" stroke-width="2" stroke-linecap="round" stroke-linejoin="round" stroke-miterlimit="10" d="
			M74.599,93.864"/>
		<path fill="none" stroke="#0E76B7" stroke-width="2" stroke-linecap="round" stroke-linejoin="round" stroke-miterlimit="10" d="
			M38.654,108.24"/>
		<path fill="none" stroke="#0E76B7" stroke-width="2" stroke-linecap="round" stroke-linejoin="round" stroke-miterlimit="10" d="
			M42.717,104.176"/>
		<path fill="none" stroke="#0E76B7" stroke-width="2" stroke-linecap="round" stroke-linejoin="round" stroke-miterlimit="10" d="
			M63.345,83.55"/>
		<path fill="none" stroke="#0E76B7" stroke-width="2" stroke-linecap="round" stroke-linejoin="round" stroke-miterlimit="10" d="
			M67.407,79.488"/>
		<path fill="none" stroke="#0E76B7" stroke-width="2" stroke-linecap="round" stroke-linejoin="round" stroke-miterlimit="10" d="
			M63.345,104.176"/>
		
			<line fill="none" stroke="#0E76B7" stroke-width="2" stroke-linecap="round" stroke-linejoin="round" stroke-miterlimit="10" x1="67.617" y1="93.864" x2="73.361" y2="93.864"/>
		
			<line fill="none" stroke="#0E76B7" stroke-width="2" stroke-linecap="round" stroke-linejoin="round" stroke-miterlimit="10" x1="32.7" y1="93.864" x2="38.445" y2="93.864"/>
		
			<line fill="none" stroke="#0E76B7" stroke-width="2" stroke-linecap="round" stroke-linejoin="round" stroke-miterlimit="10" x1="63.867" y1="83.029" x2="67.225" y2="79.67"/>
		
			<line fill="none" stroke="#0E76B7" stroke-width="2" stroke-linecap="round" stroke-linejoin="round" stroke-miterlimit="10" x1="38.837" y1="108.059" x2="42.195" y2="104.701"/>
		
			<line fill="none" stroke="#0E76B7" stroke-width="2" stroke-linecap="round" stroke-linejoin="round" stroke-miterlimit="10" x1="42.195" y1="83.029" x2="38.837" y2="79.67"/>
		
			<line fill="none" stroke="#0E76B7" stroke-width="2" stroke-linecap="round" stroke-linejoin="round" stroke-miterlimit="10" x1="67.225" y1="108.059" x2="63.867" y2="104.701"/>
	</g>
	
		<line fill="none" stroke="#FFFFFF" stroke-linecap="round" stroke-linejoin="round" stroke-miterlimit="10" x1="49.702" y1="96.123" x2="55.101" y2="90.725"/>
	
		<line fill="none" stroke="#FFFFFF" stroke-linecap="round" stroke-linejoin="round" stroke-miterlimit="10" x1="52.401" y1="96.854" x2="55.832" y2="93.423"/>
	
		<circle fill="#FFFFFF" stroke="#0E76B7" stroke-width="4" stroke-linejoin="round" stroke-miterlimit="10" cx="155.563" cy="104.701" r="33.085"/>
	<circle fill="#0E76B7" stroke="#0E76B7" stroke-miterlimit="10" cx="140.853" cy="99.032" r="2.583"/>
	<circle fill="#0E76B7" stroke="#0E76B7" stroke-miterlimit="10" cx="170.276" cy="99.032" r="2.583"/>
	<path fill="none" stroke="#0E76B7" stroke-width="3" stroke-linecap="round" stroke-linejoin="round" stroke-miterlimit="10" d="
		M138.412,112.852c3.09,6.369,9.597,10.771,17.151,10.771s14.062-4.402,17.152-10.771"/>
	
		<line fill="none" stroke="#0E76B7" stroke-width="3" stroke-linecap="round" stroke-linejoin="round" stroke-miterlimit="10" x1="155.563" y1="105.381" x2="155.563" y2="108.637"/>
	
		<polygon fill="#0E76B7" stroke="#0E76B7" stroke-width="2" stroke-linecap="round" stroke-linejoin="round" stroke-miterlimit="10" points="
		102.608,98.333 86.829,98.333 86.829,111.072 102.608,111.072 102.608,116.551 114.457,104.701 102.608,92.851 	"/>
</g>
</svg>
